<?xml version="1.0" encoding="utf-8"?>
<!-- Generator: Adobe Illustrator 19.0.0, SVG Export Plug-In . SVG Version: 6.00 Build 0)  -->
<svg version="1.1" id="Layer_1" xmlns="http://www.w3.org/2000/svg" xmlns:xlink="http://www.w3.org/1999/xlink" x="0px" y="0px"
	 viewBox="11 518.5 186.2 152.9" style="enable-background:new 11 518.5 186.2 152.9;" xml:space="preserve">
<style type="text/css">
	.st0{fill:url(#SVGID_1_);}
	.st1{fill:#0088AA;}
	.st2{fill:#D40000;}
	.st3{opacity:0.3;enable-background:new    ;}
	.st4{fill:url(#SVGID_2_);}
	.st5{fill:url(#SVGID_3_);}
	.st6{fill:url(#SVGID_4_);}
	.st7{fill:url(#SVGID_5_);}
	.st8{opacity:0.3;filter:url(#b);enable-background:new    ;}
	.st9{fill:#FFFFFF;}
	.st10{opacity:0.7;filter:url(#a);enable-background:new    ;}
	.st11{fill:url(#SVGID_6_);fill-opacity:0.8706;}
	.st12{fill:url(#SVGID_7_);}
	.st13{fill:url(#SVGID_8_);}
	.st14{fill:url(#SVGID_9_);fill-opacity:0.8706;}
	.st15{fill:url(#SVGID_10_);}
	.st16{fill:url(#SVGID_11_);}
	.st17{fill:url(#SVGID_12_);}
	.st18{fill:url(#SVGID_13_);}
	.st19{fill:url(#SVGID_14_);}
	.st20{fill:url(#SVGID_15_);}
	.st21{fill:url(#SVGID_16_);}
	.st22{fill:url(#SVGID_17_);}
	.st23{fill:#CCCCCC;}
	.st24{opacity:0.2;enable-background:new    ;}
	.st25{fill:#333333;}
</style>
<filter  width="1.6548" height="1.8928" id="b" y="-.44639" x="-.32738">
	<feGaussianBlur  stdDeviation="6.2396"></feGaussianBlur>
</filter>
<filter  id="a">
	<feGaussianBlur  stdDeviation=".7725"></feGaussianBlur>
</filter>
<g transform="matrix(.70966 -.15679 .15679 .70966 -462.69 173.95)">
	
		<radialGradient id="SVGID_1_" cx="1156.1383" cy="845.5521" r="80.898" gradientTransform="matrix(-1.1796 0.7287 0.1174 0.6597 1944.3889 -689.9516)" gradientUnits="userSpaceOnUse">
		<stop  offset="0" style="stop-color:#FFFFFF"/>
		<stop  offset="1" style="stop-color:#ECECEC"/>
	</radialGradient>
	<path class="st0" d="M515.9,686.3l217.5-38.7l23.8,133.9l-217.5,38.7L515.9,686.3z"/>
	<path class="st1" d="M515.9,686.3l0.5,2.9l1.8-3.3L515.9,686.3z M550.3,680.2l-2.9,5.5l11.5-2l2.9-5.5L550.3,680.2z M594,672.4
		l-2.9,5.5l11.5-2l2.9-5.5L594,672.4z M637.7,664.6l-2.9,5.5l11.6-2.1l2.9-5.5L637.7,664.6z M681.4,656.8l-2.9,5.5l11.5-2l2.9-5.5
		L681.4,656.8z M725.2,649l-2.9,5.5l6.2-1.1l1.2,6.8l4.5-8.4l-0.8-4.2L725.2,649L725.2,649z M527.8,722.4l-4.1,7.7l2.6,14.7l4.1-7.7
		L527.8,722.4z M741.4,692.7l-4.5,8.4l2.6,14.7l4.5-8.4L741.4,692.7z M537.7,778.1l-4.1,7.7l2.6,14.7l4.1-7.7L537.7,778.1z
		 M751.3,748.4l-4.5,8.4l2.6,14.7l4.5-8.4L751.3,748.4z M559.3,811.7l-2.9,5.5l11.5-2l2.9-5.5L559.3,811.7z M603,804l-2.9,5.5
		l11.5-2l2.9-5.5L603,804z M646.7,796.2l-2.9,5.5l11.6-2.1l2.9-5.5L646.7,796.2z M690.4,788.4l-2.9,5.5l11.5-2l2.9-5.5L690.4,788.4z
		 M734.1,780.6l-2.9,5.5l11.6-2.1l2.9-5.5L734.1,780.6z"/>
	<path class="st2" d="M528.5,684.1l-2.9,5.5l11.5-2l2.9-5.5L528.5,684.1z M572.1,676.3l-2.9,5.5l11.6-2.1l2.9-5.5L572.1,676.3z
		 M615.9,668.5l-2.9,5.5l11.5-2l2.9-5.5L615.9,668.5z M659.6,660.7l-2.9,5.5l11.6-2.1l2.9-5.5L659.6,660.7z M703.3,652.9l-2.9,5.5
		l11.5-2l2.9-5.5L703.3,652.9z M522.8,694.6l-4.1,7.7l2.6,14.6l4.1-7.7L522.8,694.6L522.8,694.6z M736.4,664.9l-4.5,8.4l2.6,14.7
		l4.5-8.4L736.4,664.9z M532.7,750.3l-4.1,7.7l2.6,14.7l4.1-7.7L532.7,750.3z M746.4,720.6l-4.5,8.4l2.6,14.7l4.5-8.4L746.4,720.6z
		 M542.7,805.9l-4.1,7.7l1.2,6.6l6.3-1.1l2.9-5.5l-4.8,0.9L542.7,805.9L542.7,805.9z M756.3,776.2l-3.2,6l4.2-0.7L756.3,776.2z
		 M581.1,807.9l-2.9,5.5l11.6-2.1l2.9-5.5L581.1,807.9z M624.9,800.1l-2.9,5.5l11.5-2l2.9-5.5L624.9,800.1z M668.5,792.3l-2.9,5.5
		l11.6-2.1l2.9-5.5L668.5,792.3z M712.3,784.5l-2.9,5.5l11.5-2l2.9-5.5L712.3,784.5z"/>
	<g transform="matrix(.35952 .02345 -.02345 .35952 554.1 277.45)">
		<path class="st3" d="M464.5,1043.7c-0.3,1.6-1.5,2.9-3.1,3.2c-0.2,0-0.4,0.1-0.6,0.1c1.2,0.5,2.2,1.5,2.4,2.9
			c0.3,1.8-0.6,3.5-2.2,4.2l0,0.2c1.7,0.1,3.2,1.4,3.5,3.2c0.3,1.8-0.6,3.5-2.2,4.2l0,0.2c1.7,0.1,3.2,1.4,3.5,3.2
			c0.3,1.8-0.6,3.5-2.2,4.2l0,0.2c1.7,0.1,3.2,1.4,3.5,3.2c0.3,1.8-0.6,3.5-2.2,4.2l0,0.2c1.7,0.1,3.2,1.4,3.5,3.2
			c0.3,1.8-0.6,3.5-2.2,4.2l0,0.2c1.7,0.1,3.2,1.4,3.5,3.2c0.3,1.8-0.6,3.5-2.2,4.2l0,0.2c1.7,0.1,3.2,1.4,3.5,3.2
			c0.3,1.8-0.6,3.5-2.2,4.2l0,0.2c1.7,0.1,3.2,1.4,3.5,3.2s-0.6,3.5-2.2,4.2l0,0.2c1.7,0.1,3.2,1.4,3.5,3.2c0.3,1.8-0.6,3.5-2.2,4.2
			l0,0.2c1.7,0.1,3.2,1.4,3.5,3.2s-0.6,3.5-2.2,4.2l0,0.2c1.7,0.1,3.2,1.4,3.5,3.2c0.3,1.8-0.6,3.5-2.2,4.2l0,0.2
			c1.7,0.1,3.2,1.4,3.5,3.2s-0.6,3.5-2.2,4.2l0.1,0.6c1.7,0.1,3.2,1.4,3.5,3.2s-0.6,3.5-2.2,4.2l0,0.2c1.7,0.1,3.2,1.4,3.5,3.2
			c0.2,1,0,2.1-0.6,2.9c1.6-0.2,3.1,0.6,3.9,2l0.4-0.1c0.2-1.6,1.5-2.9,3.1-3.2c1.7-0.3,3.3,0.5,4.1,2l0.4-0.1
			c0.2-1.6,1.5-2.9,3.1-3.2s3.3,0.5,4.1,2l0.4-0.1c0.2-1.6,1.5-2.9,3.1-3.2s3.3,0.5,4.1,2l0.4-0.1c0.2-1.6,1.5-2.9,3.1-3.2
			c1.7-0.3,3.3,0.5,4.1,2l0.4-0.1c0.2-1.6,1.5-2.9,3.1-3.2s3.3,0.5,4.1,2l0.4-0.1c0.2-1.6,1.5-2.9,3.1-3.2s3.3,0.5,4.1,2l0.4-0.1
			c0.2-1.6,1.5-2.9,3.1-3.2c1.7-0.3,3.3,0.5,4.1,2l0.4-0.1c0.2-1.6,1.5-2.9,3.1-3.2s3.3,0.5,4.1,2l0.4-0.1c0.2-1.6,1.5-2.9,3.1-3.2
			s3.3,0.5,4.1,2l0.4-0.1c0.2-1.6,1.5-2.9,3.1-3.2s3.3,0.5,4.1,2l0.4-0.1c0.2-1.1,0.8-2.1,1.7-2.7c-1-0.5-1.8-1.5-2-2.7
			c-0.4-2.1,1-4.1,3.1-4.5c-2.1,0.4-4.1-1-4.5-3.1c-0.4-2.1,1-4.1,3.1-4.5c0.4-0.1,0.8-0.1,1.2,0l-0.1-0.8c-0.1,0.1-0.2,0.1-0.3,0.2
			c-0.2,0.1-0.5,0.2-0.8,0.2c-2.1,0.4-4.1-1-4.5-3.1c-0.4-2.1,1-4.1,3.1-4.5c-2.1,0.4-4.1-1-4.5-3.1c-0.4-2.1,1-4.1,3.1-4.5
			c-2.1,0.4-4.1-1-4.5-3.1c-0.4-2.1,1-4.1,3.1-4.5c-2.1,0.4-4.1-1-4.5-3.1c-0.4-2.1,1-4.1,3.1-4.5c-2.1,0.4-4.1-1-4.5-3.1
			c-0.4-2.1,1-4.1,3.1-4.5c-2.1,0.4-4.1-1-4.5-3.1c-0.4-2.1,1-4.1,3.1-4.5c-2.1,0.4-4.1-1-4.5-3.1c-0.4-2.1,1-4.1,3.1-4.5
			c-2.1,0.4-4.1-1-4.5-3.1c-0.4-2.1,1-4.1,3.1-4.5c-2.1,0.4-4.1-1-4.5-3.1c-0.4-2.1,1-4.1,3.1-4.5c-2.1,0.4-4.1-1-4.5-3.1
			c-0.4-2.1,1-4.1,3.1-4.5c-2.1,0.4-4.1-1-4.5-3.1c-0.4-2.1,1-4.1,3.1-4.5c-2.1,0.4-4.1-1-4.5-3.1c-0.3-1.4,0.3-2.8,1.4-3.7
			c-1.3-0.1-2.5-0.8-3.1-1.9l-0.4,0.1c-0.3,1.6-1.5,2.9-3.1,3.2c-1.6,0.3-3.2-0.5-4-1.9l-0.5,0.1c-0.3,1.6-1.5,2.9-3.1,3.2
			s-3.2-0.5-4-1.9l-0.5,0.1c-0.3,1.6-1.5,2.9-3.1,3.2s-3.2-0.5-4-1.9l-0.5,0.1c-0.3,1.6-1.5,2.9-3.1,3.2c-1.6,0.3-3.2-0.5-4-1.9
			l-0.5,0.1c-0.3,1.6-1.5,2.9-3.1,3.2c-1.6,0.3-3.2-0.5-4-1.9l-0.5,0.1c-0.3,1.6-1.5,2.9-3.1,3.2c-1.6,0.3-3.2-0.5-4-1.9l-0.5,0.1
			c-0.3,1.6-1.5,2.9-3.1,3.2c-1.6,0.3-3.2-0.5-4-1.9l-0.5,0.1c-0.3,1.6-1.5,2.9-3.1,3.2c-1.6,0.3-3.2-0.5-4-1.9l-0.5,0.1
			c-0.3,1.6-1.5,2.9-3.1,3.2c-1.6,0.3-3.2-0.5-4-1.9l-0.5,0.1c-0.3,1.6-1.5,2.9-3.1,3.2c-1.6,0.3-3.2-0.5-4-1.9L464.5,1043.7
			L464.5,1043.7z M547.2,1038.8c0.4-0.1,0.8-0.1,1.2,0l-0.1-0.4C548,1038.6,547.6,1038.7,547.2,1038.8L547.2,1038.8z M548.6,1046.4
			c0.4-0.1,0.8-0.1,1.2,0l-0.1-0.4C549.3,1046.2,549,1046.3,548.6,1046.4L548.6,1046.4z M549.9,1054c0.4-0.1,0.8-0.1,1.2,0l-0.1-0.4
			C550.7,1053.8,550.3,1054,549.9,1054z M551.3,1061.6c0.4-0.1,0.8-0.1,1.2,0l-0.1-0.4C552,1061.4,551.7,1061.6,551.3,1061.6
			L551.3,1061.6z M552.6,1069.2c0.4-0.1,0.8-0.1,1.2,0l-0.1-0.4C553.4,1069,553,1069.2,552.6,1069.2L552.6,1069.2z M554,1076.9
			c0.4-0.1,0.8-0.1,1.2,0l-0.1-0.4C554.8,1076.6,554.4,1076.8,554,1076.9L554,1076.9z M555.3,1084.5c0.4-0.1,0.8-0.1,1.2,0l-0.1-0.4
			C556.1,1084.2,555.7,1084.4,555.3,1084.5L555.3,1084.5z M556.7,1092.1c0.4-0.1,0.8-0.1,1.2,0l-0.1-0.4
			C557.5,1091.9,557.1,1092,556.7,1092.1L556.7,1092.1z M558,1099.7c0.4-0.1,0.8-0.1,1.2,0l-0.1-0.4
			C558.8,1099.5,558.4,1099.6,558,1099.7z M559.4,1107.3c0.4-0.1,0.8-0.1,1.2,0l-0.1-0.4C560.2,1107.1,559.8,1107.2,559.4,1107.3
			L559.4,1107.3z M560.8,1114.9c0.3,0,0.6-0.1,0.8-0.1c0.1,0,0.3,0,0.4,0.1l-0.1-0.4C561.5,1114.7,561.2,1114.8,560.8,1114.9z
			 M563.5,1130.5c0.4-0.1,0.8-0.1,1.2,0l-0.1-0.4C564.3,1130.3,563.9,1130.4,563.5,1130.5L563.5,1130.5z M547,1031l-0.2,0.2
			c0.1,0,0.1,0,0.2,0L547,1031L547,1031z"/>
		
			<radialGradient id="SVGID_2_" cx="1829.8877" cy="439.4003" r="32.489" gradientTransform="matrix(0.7002 1.414103e-003 -5.897887e-002 -0.8702 -758.6772 1515.1741)" gradientUnits="userSpaceOnUse">
			<stop  offset="0" style="stop-color:#DBE3DE"/>
			<stop  offset="1" style="stop-color:#F2F2F2"/>
		</radialGradient>
		<path class="st4" d="M464.5,1043.7c-0.3,1.6-1.5,2.9-3.1,3.2c-0.2,0-0.4,0.1-0.6,0.1c1.2,0.5,2.2,1.5,2.4,2.9
			c0.3,1.8-0.6,3.5-2.2,4.2l0,0.2c1.7,0.1,3.2,1.4,3.5,3.2c0.3,1.8-0.6,3.5-2.2,4.2l0,0.2c1.7,0.1,3.2,1.4,3.5,3.2
			c0.3,1.8-0.6,3.5-2.2,4.2l0,0.2c1.7,0.1,3.2,1.4,3.5,3.2c0.3,1.8-0.6,3.5-2.2,4.2l0,0.2c1.7,0.1,3.2,1.4,3.5,3.2
			c0.3,1.8-0.6,3.5-2.2,4.2l0,0.2c1.7,0.1,3.2,1.4,3.5,3.2c0.3,1.8-0.6,3.5-2.2,4.2l0,0.2c1.7,0.1,3.2,1.4,3.5,3.2
			c0.3,1.8-0.6,3.5-2.2,4.2l0,0.2c1.7,0.1,3.2,1.4,3.5,3.2s-0.6,3.5-2.2,4.2l0,0.2c1.7,0.1,3.2,1.4,3.5,3.2c0.3,1.8-0.6,3.5-2.2,4.2
			l0,0.2c1.7,0.1,3.2,1.4,3.5,3.2s-0.6,3.5-2.2,4.2l0,0.2c1.7,0.1,3.2,1.4,3.5,3.2c0.3,1.8-0.6,3.5-2.2,4.2l0,0.2
			c1.7,0.1,3.2,1.4,3.5,3.2s-0.6,3.5-2.2,4.2l0.1,0.6c1.7,0.1,3.2,1.4,3.5,3.2s-0.6,3.5-2.2,4.2l0,0.2c1.7,0.1,3.2,1.4,3.5,3.2
			c0.2,1,0,2.1-0.6,2.9c1.6-0.2,3.1,0.6,3.9,2l0.4-0.1c0.2-1.6,1.5-2.9,3.1-3.2c1.7-0.3,3.3,0.5,4.1,2l0.4-0.1
			c0.2-1.6,1.5-2.9,3.1-3.2s3.3,0.5,4.1,2l0.4-0.1c0.2-1.6,1.5-2.9,3.1-3.2s3.3,0.5,4.1,2l0.4-0.1c0.2-1.6,1.5-2.9,3.1-3.2
			c1.7-0.3,3.3,0.5,4.1,2l0.4-0.1c0.2-1.6,1.5-2.9,3.1-3.2s3.3,0.5,4.1,2l0.4-0.1c0.2-1.6,1.5-2.9,3.1-3.2s3.3,0.5,4.1,2l0.4-0.1
			c0.2-1.6,1.5-2.9,3.1-3.2c1.7-0.3,3.3,0.5,4.1,2l0.4-0.1c0.2-1.6,1.5-2.9,3.1-3.2s3.3,0.5,4.1,2l0.4-0.1c0.2-1.6,1.5-2.9,3.1-3.2
			s3.3,0.5,4.1,2l0.4-0.1c0.2-1.6,1.5-2.9,3.1-3.2s3.3,0.5,4.1,2l0.4-0.1c0.2-1.1,0.8-2.1,1.7-2.7c-1-0.5-1.8-1.5-2-2.7
			c-0.4-2.1,1-4.1,3.1-4.5c-2.1,0.4-4.1-1-4.5-3.1c-0.4-2.1,1-4.1,3.1-4.5c0.4-0.1,0.8-0.1,1.2,0l-0.1-0.8c-0.1,0.1-0.2,0.1-0.3,0.2
			c-0.2,0.1-0.5,0.2-0.8,0.2c-2.1,0.4-4.1-1-4.5-3.1c-0.4-2.1,1-4.1,3.1-4.5c-2.1,0.4-4.1-1-4.5-3.1c-0.4-2.1,1-4.1,3.1-4.5
			c-2.1,0.4-4.1-1-4.5-3.1c-0.4-2.1,1-4.1,3.1-4.5c-2.1,0.4-4.1-1-4.5-3.1c-0.4-2.1,1-4.1,3.1-4.5c-2.1,0.4-4.1-1-4.5-3.1
			c-0.4-2.1,1-4.1,3.1-4.5c-2.1,0.4-4.1-1-4.5-3.1c-0.4-2.1,1-4.1,3.1-4.5c-2.1,0.4-4.1-1-4.5-3.1c-0.4-2.1,1-4.1,3.1-4.5
			c-2.1,0.4-4.1-1-4.5-3.1c-0.4-2.1,1-4.1,3.1-4.5c-2.1,0.4-4.1-1-4.5-3.1c-0.4-2.1,1-4.1,3.1-4.5c-2.1,0.4-4.1-1-4.5-3.1
			c-0.4-2.1,1-4.1,3.1-4.5c-2.1,0.4-4.1-1-4.5-3.1c-0.4-2.1,1-4.1,3.1-4.5c-2.1,0.4-4.1-1-4.5-3.1c-0.3-1.4,0.3-2.8,1.4-3.7
			c-1.3-0.1-2.5-0.8-3.1-1.9l-0.4,0.1c-0.3,1.6-1.5,2.9-3.1,3.2c-1.6,0.3-3.2-0.5-4-1.9l-0.5,0.1c-0.3,1.6-1.5,2.9-3.1,3.2
			s-3.2-0.5-4-1.9l-0.5,0.1c-0.3,1.6-1.5,2.9-3.1,3.2s-3.2-0.5-4-1.9l-0.5,0.1c-0.3,1.6-1.5,2.9-3.1,3.2c-1.6,0.3-3.2-0.5-4-1.9
			l-0.5,0.1c-0.3,1.6-1.5,2.9-3.1,3.2c-1.6,0.3-3.2-0.5-4-1.9l-0.5,0.1c-0.3,1.6-1.5,2.9-3.1,3.2c-1.6,0.3-3.2-0.5-4-1.9l-0.5,0.1
			c-0.3,1.6-1.5,2.9-3.1,3.2c-1.6,0.3-3.2-0.5-4-1.9l-0.5,0.1c-0.3,1.6-1.5,2.9-3.1,3.2c-1.6,0.3-3.2-0.5-4-1.9l-0.5,0.1
			c-0.3,1.6-1.5,2.9-3.1,3.2c-1.6,0.3-3.2-0.5-4-1.9l-0.5,0.1c-0.3,1.6-1.5,2.9-3.1,3.2c-1.6,0.3-3.2-0.5-4-1.9L464.5,1043.7
			L464.5,1043.7z M547.2,1038.8c0.4-0.1,0.8-0.1,1.2,0l-0.1-0.4C548,1038.6,547.6,1038.7,547.2,1038.8L547.2,1038.8z M548.6,1046.4
			c0.4-0.1,0.8-0.1,1.2,0l-0.1-0.4C549.3,1046.2,549,1046.3,548.6,1046.4L548.6,1046.4z M549.9,1054c0.4-0.1,0.8-0.1,1.2,0l-0.1-0.4
			C550.7,1053.8,550.3,1054,549.9,1054z M551.3,1061.6c0.4-0.1,0.8-0.1,1.2,0l-0.1-0.4C552,1061.4,551.7,1061.6,551.3,1061.6
			L551.3,1061.6z M552.6,1069.2c0.4-0.1,0.8-0.1,1.2,0l-0.1-0.4C553.4,1069,553,1069.2,552.6,1069.2L552.6,1069.2z M554,1076.9
			c0.4-0.1,0.8-0.1,1.2,0l-0.1-0.4C554.8,1076.6,554.4,1076.8,554,1076.9L554,1076.9z M555.3,1084.5c0.4-0.1,0.8-0.1,1.2,0l-0.1-0.4
			C556.1,1084.2,555.7,1084.4,555.3,1084.5L555.3,1084.5z M556.7,1092.1c0.4-0.1,0.8-0.1,1.2,0l-0.1-0.4
			C557.5,1091.9,557.1,1092,556.7,1092.1L556.7,1092.1z M558,1099.7c0.4-0.1,0.8-0.1,1.2,0l-0.1-0.4
			C558.8,1099.5,558.4,1099.6,558,1099.7z M559.4,1107.3c0.4-0.1,0.8-0.1,1.2,0l-0.1-0.4C560.2,1107.1,559.8,1107.2,559.4,1107.3
			L559.4,1107.3z M560.8,1114.9c0.3,0,0.6-0.1,0.8-0.1c0.1,0,0.3,0,0.4,0.1l-0.1-0.4C561.5,1114.7,561.2,1114.8,560.8,1114.9z
			 M563.5,1130.5c0.4-0.1,0.8-0.1,1.2,0l-0.1-0.4C564.3,1130.3,563.9,1130.4,563.5,1130.5L563.5,1130.5z M547,1031l-0.2,0.2
			c0.1,0,0.1,0,0.2,0L547,1031L547,1031z"/>
		
			<radialGradient id="SVGID_3_" cx="1816.3398" cy="479.3976" r="26.667" gradientTransform="matrix(0.7244 5.634644e-003 -6.279882e-002 -0.9182 -791.1464 1566.0305)" gradientUnits="userSpaceOnUse">
			<stop  offset="0" style="stop-color:#0088AA"/>
			<stop  offset="1" style="stop-color:#006680"/>
		</radialGradient>
		<path class="st5" d="M467.7,1050.4l71.7-12.8l16.9,94.8l-71.7,12.8L467.7,1050.4z"/>
		<g transform="matrix(.17154 0 0 .17154 469.22 284.13)">
			<g transform="translate(-2.9962 -5.2434)">
				<g transform="matrix(-.99337 -.11498 -.11498 .99337 1478.4 71.12)">
					
						<radialGradient id="SVGID_4_" cx="219.1465" cy="-14063.502" r="72.554" gradientTransform="matrix(-0.1646 -2.337058e-002 1.887387e-002 -0.1082 1111.4396 3234.03)" gradientUnits="userSpaceOnUse">
						<stop  offset="0" style="stop-color:#B20506"/>
						<stop  offset="1" style="stop-color:#B20506;stop-opacity:0.5565"/>
					</radialGradient>
					<path class="st6" d="M728.8,4821.3c0,0-42.7-131.3-5.8-177.6c15.2-19,49.5-25.3,71.5-13.8c27.6,14.5,29.3,48.3,29.3,48.3
						s30.4-16.5,61.3,11.4c21.1,19.1,19.2,50.3,6.7,70.3C861.2,4809.3,728.8,4821.3,728.8,4821.3L728.8,4821.3z"/>
					
						<radialGradient id="SVGID_5_" cx="24654.832" cy="-46738.5039" r="72.554" gradientTransform="matrix(-5.125618e-002 -1.063114e-002 1.014974e-002 -4.766007e-002 2472.7595 2844.6016)" gradientUnits="userSpaceOnUse">
						<stop  offset="0" style="stop-color:#E04A87"/>
						<stop  offset="1" style="stop-color:#E04A87;stop-opacity:0"/>
					</radialGradient>
					<path class="st7" d="M777.2,4627.4c-24.6-3.4-53.1,8.3-60.5,33.7c-11,34.7-4.9,72.2,1.5,107.1c3.4,16.9,7.6,33.7,12.6,50.1
						c45.7-5.8,92.5-14,133.3-36.8c18.8-10.1,33.9-29.1,34.4-51.3c1.9-20.3-10.6-39.5-28.8-48.2c-14.8-7.9-33.7-8-48.3,0.6
						C821.2,4657.1,804.5,4630.1,777.2,4627.4L777.2,4627.4z"/>
					<g class="st8">
						
							<ellipse transform="matrix(-0.885 0.4656 -0.4656 -0.885 3629.5371 8425.5146)" class="st9" cx="774.1" cy="4661.1" rx="1.2" ry="0.8"/>
					</g>
					<g class="st8">
						
							<ellipse transform="matrix(-0.885 0.4656 -0.4656 -0.885 3811.8154 8481.7832)" class="st9" cx="858.3" cy="4711.7" rx="1.2" ry="0.8"/>
					</g>
				</g>
				<g class="st10">
					<path class="st9" d="M120.9,4629.5c0,0-14.2-5.9-21.7-7.1c-7.1-1.1-21.7,0.1-21.7,0.1s-5.7,2.8-6.1,5.5
						c-0.3,2.1,3.3,5.4,3.3,5.4s14.3-4.5,21.7-5.2C104.5,4627.4,120.9,4629.5,120.9,4629.5L120.9,4629.5z"/>
				</g>
				<g class="st10">
					<path class="st9" d="M142.1,4592.4c0,0,11.5-10,20.8-12.6c20.5-5.8,42.7,8.4,42.7,8.4s-24.8-4.5-37.2-3.3
						C159.3,4585.7,142.1,4592.4,142.1,4592.4z"/>
				</g>
				
					<radialGradient id="SVGID_6_" cx="122855.4688" cy="-246739.4375" r="17.6035" gradientTransform="matrix(1.244885e-002 -2.321407e-003 -1.528010e-003 -1.087985e-002 -1705.9042 2379.5593)" gradientUnits="userSpaceOnUse">
					<stop  offset="0" style="stop-color:#DA4175"/>
					<stop  offset="1" style="stop-color:#B20506"/>
				</radialGradient>
				<path class="st11" d="M199.2,4774.8c-2.6,0.9-4.1,3.4-3.4,5.6c0.4,1.4,1.6,2.3,3.1,2.7c0.6-0.6,1.4-1.2,2.3-1.5
					c1-0.3,2-0.4,3-0.1c1.1-1.2,1.6-2.7,1.1-4.2C204.5,4775.1,201.8,4773.9,199.2,4774.8z"/>
			</g>
			<g transform="matrix(.99746 .07122 -.07122 .99746 7.3878 -56.685)">
				
					<radialGradient id="SVGID_7_" cx="21335.0977" cy="-14867.5459" r="72.554" gradientTransform="matrix(0.1633 -3.011089e-002 -1.246321e-002 -0.1095 -3014.0935 3731.9517)" gradientUnits="userSpaceOnUse">
					<stop  offset="0" style="stop-color:#B20506"/>
					<stop  offset="1" style="stop-color:#B20506;stop-opacity:0.5565"/>
				</radialGradient>
				<path class="st12" d="M602.9,4811.8c0,0-85.5-108.5-66.7-164.7c7.7-23,37.8-40.8,62.4-37.6c30.9,4,44.2,35.2,44.2,35.2
					s22.8-26,61.5-10.4c26.4,10.6,35.4,40.6,30.6,63.6C722.9,4754.8,602.8,4811.8,602.9,4811.8L602.9,4811.8z"/>
				
					<radialGradient id="SVGID_8_" cx="40444.082" cy="-44634.8008" r="72.554" gradientTransform="matrix(5.202937e-002 -5.590181e-003 -4.645702e-003 -4.852628e-002 -1707.1978 2859.3132)" gradientUnits="userSpaceOnUse">
					<stop  offset="0" style="stop-color:#E04A87"/>
					<stop  offset="1" style="stop-color:#E04A87;stop-opacity:0"/>
				</radialGradient>
				<path class="st13" d="M581.3,4613.1c-24.3,5.3-46.9,26.2-45.2,52.6c1.6,36.4,20.4,69.4,38.3,100c9,14.7,18.8,29,29.1,42.7
					c40.9-21.2,82-45.1,112.4-80.5c14.2-16,21.8-39.1,14.5-60.1c-5.3-19.7-23.6-33.4-43.6-35.3c-16.6-2.3-34.4,4.1-45.1,17.2
					C632.9,4625.8,607.8,4606.2,581.3,4613.1L581.3,4613.1z"/>
				<g class="st8">
					
						<ellipse transform="matrix(0.9999 1.378334e-002 -1.378334e-002 0.9999 64.0898 -7.691)" class="st9" cx="590" cy="4645.7" rx="1.2" ry="0.8"/>
				</g>
				<g class="st8">
					
						<ellipse transform="matrix(0.9999 1.378334e-002 -1.378334e-002 0.9999 64.3536 -9.0194)" class="st9" cx="686.5" cy="4664.2" rx="1.2" ry="0.8"/>
				</g>
				<g class="st10">
					<path class="st9" d="M638.9,4645.2c0,0-8.2-13-13.7-18.3c-5.2-5-17.8-12.4-17.8-12.4s-6.3-1-8.1,0.9c-1.5,1.5-0.4,6.3-0.4,6.3
						s14.3,4.5,20.7,8.3C626.7,4634.1,638.9,4645.2,638.9,4645.2L638.9,4645.2z"/>
				</g>
				<g class="st10">
					<path class="st9" d="M691,4634.2c0,0,14.9,3.3,22.6,9.2c16.9,13,18.7,39.2,18.7,39.2s-11.2-22.6-19.5-31.8
						C706.6,4644,691,4634.2,691,4634.2z"/>
				</g>
				
					<radialGradient id="SVGID_9_" cx="218236.0156" cy="-140902.0156" r="17.603" gradientTransform="matrix(1.205589e-002 3.962940e-003 3.671419e-003 -1.032218e-002 -1511.7422 2494.7632)" gradientUnits="userSpaceOnUse">
					<stop  offset="0" style="stop-color:#DA4175"/>
					<stop  offset="1" style="stop-color:#B20506"/>
				</radialGradient>
				<path class="st14" d="M603,4809.9c-2.7-0.7-5.3,0.6-5.9,2.9c-0.4,1.4,0.1,2.8,1.2,3.9c0.9-0.2,1.8-0.2,2.8,0
					c1,0.3,1.9,0.8,2.6,1.5c1.5-0.4,2.8-1.5,3.1-2.9C607.4,4813,605.7,4810.5,603,4809.9z"/>
			</g>
			<g transform="matrix(-.91212 -.40993 -.40993 .91212 1451 302.05)">
				
					<linearGradient id="SVGID_10_" gradientUnits="userSpaceOnUse" x1="97385.3203" y1="-9245.209" x2="97397.6797" y2="-9242.209" gradientTransform="matrix(-2.792268e-002 1.098844e-002 -1.098844e-002 -2.792268e-002 1915.1801 3273.7397)">
					<stop  offset="0" style="stop-color:#B20506;stop-opacity:0.9882"/>
					<stop  offset="1" style="stop-color:#CD2C4E;stop-opacity:0.9333"/>
				</linearGradient>
				<path class="st15" d="M-693,4592.2l-10.1,9.1c0,0,1.8,3.6,3.5,4.4c1.3,0.6,4.3,0.1,4.3,0.1l4.6-11.1L-693,4592.2z"/>
				
					<linearGradient id="SVGID_11_" gradientUnits="userSpaceOnUse" x1="107428.75" y1="-10446.3896" x2="107412.5156" y2="-10446.3896" gradientTransform="matrix(-2.525539e-002 1.005546e-002 -9.894022e-003 -2.543649e-002 1921.4462 3255.73)">
					<stop  offset="0" style="stop-color:#DA4175"/>
					<stop  offset="1" style="stop-color:#B20506"/>
				</linearGradient>
				<path class="st16" d="M-691.3,4594.5l-4.9,11.8c0,0,2.3,2.8,4,3.2c1.4,0.3,4.2-0.9,4.2-0.9s-1.5-5.3-1.7-8.1
					c-0.1-1.5,0.2-4.4,0.2-4.4L-691.3,4594.5z"/>
			</g>
			
				<linearGradient id="SVGID_12_" gradientUnits="userSpaceOnUse" x1="36515.1445" y1="-90531.6797" x2="36527.5039" y2="-90528.6797" gradientTransform="matrix(2.862192e-002 -9.011264e-003 -9.011264e-003 -2.862192e-002 -1604.6965 2539.2935)">
				<stop  offset="0" style="stop-color:#B20506;stop-opacity:0.9882"/>
				<stop  offset="1" style="stop-color:#CD2C4E;stop-opacity:0.9333"/>
			</linearGradient>
			<path class="st17" d="M261.8,4789l-6.3,12c0,0,2.9,2.7,4.8,2.9c1.4,0.1,4-1.4,4-1.4l0.5-12L261.8,4789z"/>
			
				<linearGradient id="SVGID_13_" gradientUnits="userSpaceOnUse" x1="40681.043" y1="-100014.2031" x2="40664.8125" y2="-100014.2031" gradientTransform="matrix(2.585950e-002 -8.174350e-003 -8.185694e-003 -2.610185e-002 -1601.274 2518.252)">
				<stop  offset="0" style="stop-color:#DA4175"/>
				<stop  offset="1" style="stop-color:#B20506"/>
			</linearGradient>
			<path class="st18" d="M264.2,4790.5l-0.6,12.7c0,0,3.2,1.9,4.8,1.7c1.4-0.2,3.7-2.3,3.7-2.3s-3.3-4.5-4.4-7
				c-0.6-1.3-1.3-4.2-1.3-4.2L264.2,4790.5z"/>
			
				<linearGradient id="SVGID_14_" gradientUnits="userSpaceOnUse" x1="36463.7148" y1="-32946.1836" x2="36464.4766" y2="-32942.8125" gradientTransform="matrix(6.130966e-002 -1.467175e-003 -1.467175e-003 -6.130966e-002 -2090.4358 2824.7307)">
				<stop  offset="0" style="stop-color:#DA4175"/>
				<stop  offset="1" style="stop-color:#B20506"/>
			</linearGradient>
			<path class="st19" d="M189.1,4787c-0.3,0.1-0.5,0.5-0.4,0.9c0,0.1,0.1,0.2,0.2,0.3c0,0,0.6,0.4,1.3,0.9c0.8,0.5,1.7,1,2.6,1.2
				c1,0.2,2.3-0.1,3.3-0.3s1.9-0.5,1.9-0.5c0.4-0.1,0.6-0.5,0.5-0.9c-0.1-0.4-0.5-0.6-0.9-0.5l0,0c0,0-0.8,0.2-1.8,0.4
				c-1,0.2-2.1,0.4-2.7,0.3c-0.5-0.1-1.3-0.5-2-1s-1.2-0.9-1.2-0.9C189.6,4786.9,189.4,4786.8,189.1,4787z"/>
			
				<linearGradient id="SVGID_15_" gradientUnits="userSpaceOnUse" x1="36612.707" y1="-32898.918" x2="36615.7773" y2="-32898.2695" gradientTransform="matrix(6.130966e-002 -1.467175e-003 -1.467175e-003 -6.130966e-002 -2090.4358 2824.7307)">
				<stop  offset="0" style="stop-color:#DA4175"/>
				<stop  offset="1" style="stop-color:#B20506"/>
			</linearGradient>
			<path class="st20" d="M197.6,4788.1c-0.3,0.2-0.5,0.6-0.3,0.9c0.1,0.2,0.3,0.3,0.5,0.3c0,0,0.7,0.2,1.6,0.4
				c0.9,0.2,1.9,0.4,2.8,0.2c0.9-0.1,2-0.6,2.9-1.1c0.9-0.4,1.6-0.9,1.6-0.9c0.3-0.2,0.4-0.6,0.2-0.9c-0.2-0.3-0.6-0.4-0.9-0.2
				c0,0,0,0,0,0c0,0-0.7,0.4-1.5,0.8c-0.8,0.4-1.9,0.9-2.4,1c-0.5,0.1-1.5-0.1-2.3-0.2s-1.5-0.3-1.5-0.3
				C198,4788,197.8,4788,197.6,4788.1z"/>
			
				<linearGradient id="SVGID_16_" gradientUnits="userSpaceOnUse" x1="37527.8398" y1="-33200.4453" x2="37528.5898" y2="-33197.0742" gradientTransform="matrix(6.130966e-002 -1.467175e-003 -1.467175e-003 -6.130966e-002 -2090.4358 2824.7307)">
				<stop  offset="0" style="stop-color:#DA4175"/>
				<stop  offset="1" style="stop-color:#B20506"/>
			</linearGradient>
			<path class="st21" d="M254.7,4801c-0.3,0.1-0.5,0.5-0.4,0.9c0,0.1,0.1,0.2,0.2,0.3c0,0,0.6,0.4,1.3,0.9c0.8,0.5,1.7,1,2.6,1.2
				c1,0.2,2.3-0.1,3.3-0.3s1.9-0.5,1.9-0.5c0.4-0.1,0.6-0.5,0.5-0.9c-0.1-0.4-0.5-0.6-0.9-0.5l0,0c0,0-0.8,0.2-1.8,0.4
				c-1,0.2-2.1,0.4-2.7,0.3c-0.5-0.1-1.3-0.5-2-1c-0.7-0.4-1.2-0.9-1.2-0.9C255.2,4800.9,255,4800.9,254.7,4801z"/>
			
				<linearGradient id="SVGID_17_" gradientUnits="userSpaceOnUse" x1="37684.4141" y1="-33169.7148" x2="37687.5469" y2="-33169.4453" gradientTransform="matrix(6.130966e-002 -1.467175e-003 -1.467175e-003 -6.130966e-002 -2090.4358 2824.7307)">
				<stop  offset="0" style="stop-color:#DA4175"/>
				<stop  offset="1" style="stop-color:#B20506"/>
			</linearGradient>
			<path class="st22" d="M263.8,4802.5c-0.4,0.1-0.5,0.5-0.4,0.9c0.1,0.2,0.2,0.3,0.4,0.4c0,0,0.7,0.3,1.5,0.6
				c0.9,0.3,1.9,0.6,2.8,0.6c0.9,0,2.1-0.4,3-0.7c0.9-0.3,1.7-0.7,1.7-0.7c0.3-0.2,0.5-0.6,0.3-0.9c-0.2-0.3-0.6-0.5-0.9-0.3
				c0,0,0,0,0,0c0,0-0.7,0.3-1.6,0.6c-0.9,0.3-2,0.6-2.5,0.6c-0.5,0-1.5-0.3-2.3-0.5c-0.8-0.3-1.5-0.5-1.5-0.5
				C264.1,4802.4,263.9,4802.4,263.8,4802.5z"/>
			<path class="st23" d="M200.1,4775.5l-1.1,0.8c0,0,8.3,11.8,16.7,27c8.5,15.2,17.1,33.8,17.7,47.3c1,18.8-7.7,36.2-17,53.7
				c-9.3,17.5-19.2,35-20.4,54.2c-0.5,7.8,1.9,18.9,4.4,28.2s5.1,16.6,5.1,16.6l1.3-0.4c0,0-2.6-7.3-5-16.6
				c-2.5-9.2-4.8-20.3-4.3-27.7c1.2-18.8,10.9-36.2,20.2-53.7c9.3-17.5,18.1-35.1,17.1-54.4c-0.7-13.9-9.4-32.6-17.9-47.9
				C208.4,4787.4,200.1,4775.5,200.1,4775.5L200.1,4775.5z"/>
			<path class="st23" d="M263.9,4789.8c0,0-3.6,8.7-8.9,19s-12.4,22.2-19.2,28.5c-13.9,12.9-30.4,26.2-35.6,44.8
				c-4.6,16.4-0.6,33.1,4.1,49.9s10,33.6,8.5,50.1c-0.2,2.7-1.5,6.8-2.7,10.2c-1.2,3.4-2.4,6-2.4,6l1.3,0.6c0,0,1.2-2.7,2.4-6.1
				s2.5-7.5,2.8-10.5c1.5-16.9-3.9-33.8-8.6-50.6c-4.7-16.7-8.5-33.2-4.1-49.2c5-18,21.3-31.3,35.2-44.2
				c7.1-6.6,14.1-18.5,19.4-28.8c5.3-10.3,9-19,9-19L263.9,4789.8L263.9,4789.8z"/>
			<path class="st23" d="M199.6,4775.6l0.5,1.1c0,0,1.8,3.6,4.5,7.2s6.1,7.6,9.9,8c1.5,0.2,3-0.4,4.3-1.2c1.3-0.9,2.4-2.1,2.6-3.6
				c0.2-2.1-1-3.8-2.6-5.1s-3.4-2.4-5-3.3c-2.1-1.2-5.3-1.8-8.1-2.3c-2.8-0.4-5-0.6-5-0.6S199.6,4775.6,199.6,4775.6z M202.1,4777.2
				c0.8,0.1,1.6,0.1,3.5,0.5c2.7,0.4,5.9,1.2,7.6,2.2c1.5,0.9,3.4,1.9,4.8,3.1s2.2,2.5,2.1,4c-0.1,0.9-0.9,1.9-2,2.6
				c-1.1,0.7-2.4,1.1-3.4,1c-2.9-0.3-6.4-3.9-9-7.4C203.5,4780.1,202.5,4778,202.1,4777.2z"/>
			<path class="st23" d="M199.8,4775.3l-0.6,1.3c0,0-0.9,1.9-1.7,4.2s-1.8,5.2-1.9,7.3c-0.1,2.2,0.4,4.4,1,6.5
				c-1.8,5.5-4.7,11.2-3.8,17.2c0.2,1.4,0.6,3.1,1.3,4.6c0.7,1.5,1.8,2.8,3.5,3c1.3,0.2,2.5-0.6,3.3-1.6c0.8-1,1.4-2.2,1.8-3.3
				c1.3-4.6-0.3-9-2.1-13.4c-0.9-2.1-1.8-4.3-2.5-6.4c0.1-0.2,0.2-0.5,0.2-0.7c1-3.4,3.9-6.7,4-10.8c0-1.3-0.5-2.9-1-4.2
				c-0.5-1.3-0.9-2.4-0.9-2.4S199.8,4775.3,199.8,4775.3z M199.8,4778.7c0.1,0.3,0.2,0.3,0.3,0.8c0.5,1.3,0.9,2.8,0.8,3.7
				c-0.1,3-2,5.8-3.3,9c-0.3-1.3-0.7-2.6-0.7-4c0.1-1.8,0.9-4.6,1.8-6.9C199.2,4779.9,199.4,4779.5,199.8,4778.7z M197.3,4796.8
				c0.6,1.7,1.3,3.3,2,4.9c1.8,4.3,3.2,8.5,2.1,12.5c-0.3,0.9-0.8,2-1.5,2.8s-1.4,1.2-2.1,1.1c-1-0.1-1.8-1-2.4-2.2s-1-2.9-1.2-4.2
				C193.4,4806.9,195.5,4801.8,197.3,4796.8z"/>
			<path class="st23" d="M264.1,4789.6l-0.1,1.2c0,0-0.1,2.3,0,5.1c0.1,2.8,0.5,6,1.4,8.2c0.7,1.6,1.5,3.7,2.7,5.3
				c1.2,1.7,2.7,3.1,4.8,3.1c1.5,0,2.9-0.9,3.9-2.1c1-1.2,1.7-2.7,1.7-4.2c0-3.8-3.4-7.7-6.8-10.8c-3.3-3.1-6.7-5.3-6.7-5.3
				S264.1,4789.6,264.1,4789.6z M265.4,4792.3c0.8,0.5,2.7,1.8,5.4,4.3c3.3,3,6.4,6.8,6.4,9.7c0,1-0.5,2.3-1.4,3.3
				c-0.8,1-1.9,1.6-2.9,1.6c-1.4,0-2.6-1-3.7-2.5c-1-1.5-1.9-3.4-2.6-5c-0.8-1.8-1.2-5.1-1.3-7.8
				C265.4,4793.9,265.4,4793.1,265.4,4792.3z"/>
			<path class="st23" d="M264.4,4789.6l-0.5,1.4c0,0-0.5,1.5-1,3.3s-1.1,4.1-1,5.8c0.1,1.7,0.6,3.3,1.2,4.9c-1,4.3-2.9,9-1.8,13.6
				c0.3,1.1,0.7,2.3,1.3,3.5c0.7,1.1,1.6,2.1,3,2.2c1.1,0,2-0.7,2.6-1.5c0.6-0.8,1-1.8,1.2-2.7c0.7-3.6-0.9-7-2.5-10.3
				c-0.8-1.6-1.6-3.2-2.3-4.8c0-0.2,0.1-0.3,0.1-0.5c0.6-2.7,2.6-5.4,2.4-8.6c-0.1-1.1-0.5-2.2-1-3.2c-0.5-1-0.9-1.8-0.9-1.8
				L264.4,4789.6z M264.6,4793c0.1,0.1,0.1,0.1,0.1,0.2c0.4,0.9,0.8,2.1,0.9,2.7c0.1,2.1-1,4.2-1.8,6.6c-0.2-0.8-0.6-1.6-0.7-2.4
				c-0.1-1.3,0.4-3.5,0.9-5.4C264.4,4793.8,264.4,4793.6,264.6,4793z M264,4807.1c0.5,1.1,1.1,2.2,1.6,3.3c1.6,3.2,3,6.3,2.4,9.4
				c-0.1,0.7-0.5,1.6-0.9,2.2s-1,1-1.4,0.9c-0.7,0-1.3-0.6-1.9-1.5s-0.9-2.1-1.2-3.1C261.7,4814.8,262.9,4811,264,4807.1z"/>
			<path class="st23" d="M200.7,4776.6l-1.2,0.6c0,0,1.2,2.7,2.4,6.2c1.2,3.4,2.3,7.6,2.4,10.3c0,1-0.4,1.9-0.8,3
				c-0.4,1.1-1,2.2-1,3.6c0,3.3,1.2,7.9,2.4,11.7c1.2,3.8,2.4,6.8,2.4,6.8l1.3-0.5c0,0-1.2-2.9-2.4-6.7s-2.3-8.3-2.3-11.3
				c0-1,0.4-1.9,0.9-3c0.4-1.1,0.9-2.2,0.9-3.5c0-3.1-1.3-7.3-2.5-10.8C201.9,4779.4,200.7,4776.6,200.7,4776.6z"/>
			<path class="st23" d="M201.2,4777.4l-1.2,0.7c0,0,1.5,2.6,3.2,5.8c1.6,3.3,3.3,7.3,3.7,10c0.1,0.9-0.1,1.9-0.4,3.1
				c-0.3,1.1-0.7,2.3-0.5,3.6c0.4,3.3,2.2,7.7,3.9,11.3c1.7,3.6,3.2,6.5,3.2,6.5l1.2-0.7c0,0-1.6-2.8-3.2-6.4
				c-1.6-3.6-3.4-7.9-3.8-10.9c-0.1-0.9,0.2-2,0.5-3.1c0.3-1.1,0.6-2.3,0.4-3.6c-0.4-3.1-2.2-7.1-3.8-10.4
				S201.2,4777.4,201.2,4777.4z"/>
		</g>
	</g>
	<path class="st24" d="M695.1,673.8c-9.4,1.7-15.7,10.6-14,20c1.7,9.4,10.7,15.7,20.1,14c9.4-1.7,15.6-10.7,14-20.1
		S704.5,672.1,695.1,673.8z M695.3,674.4c9-1.6,17.6,4.4,19.3,13.4c1.6,9-4.4,17.7-13.4,19.3c-9,1.6-17.7-4.4-19.3-13.5
		C680.2,684.6,686.2,676,695.3,674.4z M695.7,676.7c-7.8,1.4-13,8.8-11.6,16.5c1.4,7.8,8.8,12.9,16.6,11.6
		c7.8-1.4,12.9-8.8,11.5-16.6S703.4,675.4,695.7,676.7z M695.8,677.4c7.4-1.3,14.4,3.6,15.7,11c1.3,7.4-3.6,14.5-11,15.8
		c-7.4,1.3-14.5-3.6-15.8-11S688.4,678.7,695.8,677.4z M700.1,681.2c-0.3,0-0.6,0.1-0.9,0.2c-2.4,0.9-2.9,3.2-3.1,3.8
		c-0.2-0.1-0.5-0.4-1.3-0.5c-1.1-0.2-2.5-0.1-4,1c-1.1,0.8-1.7,1.9-1.9,3.1c-0.2,1.2,0,2.4,0.5,3.3c1.2,2.5,4.6,4.1,7.7,5.3
		c3.1,1.2,5.9,1.8,5.9,1.8l0.3,0.1l0.1-0.2c0,0,1.2-2.7,2.1-6c0.9-3.3,1.5-7.1,0-9.5C704.6,681.7,702.2,680.8,700.1,681.2
		L700.1,681.2z M700.2,681.9c1.8-0.3,4,0.6,4.9,2c1.2,2,0.8,5.7-0.1,9c-0.9,3.1-2,5.5-2.1,5.7c-0.3-0.1-2.6-0.6-5.5-1.7
		c-3.1-1.1-6.3-2.9-7.3-5c-0.4-0.9-0.6-1.9-0.4-3c0.2-1,0.7-2,1.6-2.6c1.4-1,2.7-1.1,3.6-0.9s1.4,0.6,1.4,0.6l0.4,0.3l0.1-0.5
		c0,0,0.5-2.7,2.8-3.6C699.7,682,700,681.9,700.2,681.9L700.2,681.9z"/>
	<path class="st24" d="M675.5,684.5c-1.8,0.3-3.2,1.7-4.5,2.9c-1.3,1.2-2.6,2.4-4.1,2.7c-1.5,0.3-3.1-0.3-4.7-1s-3.4-1.4-5.2-1
		s-4,1.7-5.7,2.9c-1.8,1.3-3.1,2.4-3.1,2.4c-0.2,0.2-0.2,0.5-0.1,0.7c0.2,0.2,0.5,0.3,0.7,0.1l0,0c0,0,1.3-1.2,3-2.4
		c1.7-1.2,3.9-2.5,5.4-2.8c1.5-0.3,3.1,0.3,4.7,1s3.4,1.4,5.2,1c1.8-0.3,3.2-1.7,4.5-2.9s2.6-2.4,4.1-2.7c1.5-0.3,4,0.2,6,0.8
		c2,0.6,3.7,1.2,3.7,1.2c0.2,0.1,0.5,0,0.6-0.2c0.1-0.3,0-0.6-0.2-0.7c0,0-0.1,0-0.1,0c0,0-1.7-0.7-3.8-1.3S677.3,684.1,675.5,684.5
		L675.5,684.5z M676.2,688.6c-1.8,0.3-3.2,1.7-4.5,2.9c-1.3,1.2-2.6,2.4-4.1,2.7c-1.5,0.3-3.1-0.3-4.7-1s-3.4-1.4-5.2-1
		c-1.8,0.3-4,1.7-5.7,2.9s-3.1,2.4-3.1,2.4c-0.2,0.2-0.2,0.5-0.1,0.7c0.2,0.2,0.5,0.3,0.7,0.1c0,0,1.3-1.2,3-2.4s3.9-2.5,5.4-2.8
		c1.5-0.3,3.1,0.3,4.7,1s3.4,1.4,5.2,1c1.8-0.3,3.2-1.7,4.5-2.9c1.3-1.2,2.6-2.4,4.1-2.7c1.5-0.3,4,0.2,6,0.8c2,0.6,3.7,1.2,3.7,1.2
		c0.2,0.1,0.5,0,0.6-0.2c0.1-0.3,0-0.6-0.2-0.7c0,0-0.1,0-0.1,0c0,0-1.7-0.7-3.8-1.3S678,688.2,676.2,688.6L676.2,688.6z
		 M676.9,692.7c-1.8,0.3-3.2,1.7-4.5,2.9s-2.6,2.4-4.1,2.7c-1.5,0.3-3.1-0.3-4.7-1s-3.4-1.4-5.2-1c-1.8,0.3-4,1.7-5.7,2.9
		c-1.8,1.3-3.1,2.4-3.1,2.4c-0.2,0.2-0.2,0.5-0.1,0.7c0.2,0.2,0.5,0.3,0.7,0.1c0,0,1.3-1.2,3-2.4c1.7-1.2,3.9-2.5,5.4-2.8
		c1.5-0.3,3.1,0.3,4.7,1c1.7,0.7,3.4,1.4,5.2,1c1.8-0.3,3.2-1.7,4.5-2.9c1.3-1.2,2.6-2.4,4.1-2.7c1.5-0.3,4,0.2,6,0.8
		s3.7,1.2,3.7,1.2c0.2,0.1,0.5,0,0.6-0.2c0.1-0.3,0-0.6-0.2-0.7c0,0-0.1,0-0.1,0c0,0-1.7-0.7-3.8-1.3
		C681.2,692.9,678.7,692.4,676.9,692.7L676.9,692.7z"/>
	<g transform="rotate(4.3585)">
		<path class="st25" d="M675,693.4c0,0.2-0.1,0.4-0.5,0.5c0,0-0.4,0.1-1.1,0.2l-3,0.5l-1.9,2.5c-1.6,2.2-2.5,3.2-2.6,3.3
			c-0.3,0.1-0.5-0.1-0.5-0.5c0-0.1,0.2-0.5,0.7-1.1c0.4-0.6,0.9-1.2,1.3-1.7l1.8-2.3c-1.1,0.2-1.7,0.3-1.8,0.3
			c-0.2,0-0.4,0.1-0.6,0.1c-0.3,0.1-0.6,0.1-0.6,0.1c-0.5,0.1-0.7,0-0.8-0.2c0-0.3,0.2-0.5,0.7-0.7c0.2,0,0.6-0.1,1.4-0.3l2.4-0.4
			c0.5-0.6,1.2-1.6,2.1-3c1-1.7,1.6-2.6,1.8-2.6c0.3,0,0.4,0.1,0.5,0.4c0,0.1-0.4,0.9-1.4,2.4c-0.5,0.7-1.1,1.6-1.8,2.7
			c0.3-0.1,0.8-0.1,1.4-0.2c0.6-0.1,1-0.1,1.2-0.2C674.4,693.2,674.9,693.2,675,693.4"/>
		<path class="st25" d="M683.5,693.3c0,0.2-0.3,0.5-0.9,0.8c-0.6,0.3-1.3,0.5-2.1,0.6c-0.5,0.1-1,0.1-1.5,0c-0.9,1.2-1.4,2-1.8,2.3
			c-0.7,0.8-1.5,1.2-2.3,1.4c-0.3,0-0.5,0-0.8-0.2c-0.2-0.2-0.3-0.4-0.4-0.6c-0.1-0.5,0-1.1,0.3-1.8c0.3-0.8,0.8-1.5,1.3-2.2
			c0.5-0.6,1.1-1.1,1.8-1.5c0.6-0.4,1-0.6,1.3-0.6c0.2,0,0.4,0,0.7,0.2c0.3,0.2,0.4,0.4,0.5,0.7s0,0.8-0.3,1.6
			c0.2,0.1,0.6,0.1,1.1,0.1c0.4-0.1,0.9-0.2,1.5-0.4c0.6-0.2,0.9-0.3,1-0.3C683.3,693.1,683.4,693.2,683.5,693.3 M677.8,694.5
			c0-0.2,0-0.4-0.1-0.7c-0.1-0.3-0.3-0.5-0.4-0.6c-0.6,0.4-1.1,0.8-1.4,1.3c-0.8,1.2-1.2,2-1.1,2.5c0,0.2,0.1,0.3,0.3,0.3
			C675.7,697.3,676.6,696.3,677.8,694.5"/>
		<path class="st25" d="M714.6,686.2c0.1,0.3-0.2,0.7-0.9,1.1c-0.6,0.4-1.2,0.9-1.8,1.3c-1.6,1.2-2.6,1.8-3.1,1.9
			c-0.2,0-0.4,0-0.6-0.2c-0.2-0.2-0.3-0.3-0.4-0.5c-0.1-0.5,0-1.1,0.3-1.9c0.1-0.3,0.4-1.2,1-2.6c0.1-0.2,0.4-0.8,0.9-1.9
			c0.4-0.8,0.6-1.3,0.6-1.5c0-0.2-0.1-0.3-0.3-0.2c-0.2,0-0.7,0.4-1.7,1c-1.1,0.7-1.9,1.4-2.5,1.9c-0.7,0.6-1.4,1.4-2,2.2l-1.7,2.3
			c-0.4,0.6-0.9,1.2-1.3,1.8c-0.5,0.7-0.9,1.1-1.1,1.1c-0.2,0-0.3,0-0.5-0.1c-0.2-0.1-0.2-0.2-0.3-0.3c0-0.2,0.2-0.8,0.8-1.7
			c0.5-0.8,1-1.4,1.4-1.9l1.9-2c0.8-0.8,1.3-1.5,1.6-2c1.3-2,1.8-3.5,1.6-4.4c-0.1-0.4-0.2-0.6-0.4-0.6c-0.5,0.1-1.4,1-2.9,2.6
			c-1,1.2-2.5,3-4.6,5.5c-1,1.3-2.5,3-4.4,5.3c-0.9,1-1.9,1.7-2.9,2.3c-0.7,0.4-1.3,0.7-1.8,0.8c-0.4,0.1-0.8-0.1-1.1-0.5
			c-0.2-0.3-0.4-0.8-0.5-1.2c-0.2-0.9,0.2-1.4,1-1.5c0.4-0.1,0.7-0.1,0.8,0.1c0.1,0.1,0.2,0.2,0.3,0.5c0.1,0.2,0.1,0.4,0.2,0.6
			c0,0.1,0,0.2,0,0.4c0,0.1,0,0.2,0,0.2c0.3-0.1,0.8-0.3,1.5-0.8c0.7-0.5,1.5-1.2,2.2-2c0.3-0.3,1.6-1.9,4.2-5
			c1.2-1.4,3-3.5,5.4-6.2c1.2-1.4,2.2-2.2,2.8-2.3c0.3-0.1,0.6,0,0.8,0.2c0.2,0.2,0.4,0.4,0.4,0.7c0.1,0.6,0,1.4-0.2,2.3
			c-0.4,1.3-0.5,2-0.5,2c2-1.4,3.4-2.1,4.1-2.2c0.2,0,0.5,0,0.7,0.2c0.2,0.2,0.3,0.3,0.3,0.5c0.1,0.3-0.1,0.9-0.4,1.7
			c-0.4,0.8-0.7,1.7-1.1,2.5c-0.9,2.1-1.3,3.3-1.3,3.4c0,0.2,0.2,0.2,0.4,0.2c0.4-0.1,1.2-0.6,2.5-1.5l1.6-1.2
			c0.4-0.3,0.7-0.5,0.8-0.5C714.4,685.9,714.6,686,714.6,686.2"/>
		<path class="st25" d="M719,683.7c-0.4,0.1-0.7-0.1-0.8-0.5c-0.1-0.4,0.1-0.7,0.5-0.8c0.2,0,0.3,0,0.5,0.1c0.2,0.1,0.3,0.2,0.3,0.4
			C719.6,683.4,719.4,683.7,719,683.7 M720.3,688.6c0,0.2-0.5,0.6-1.7,1.2c-1.3,0.7-2.4,1.1-3.5,1.3c-0.4,0.1-0.7,0-1-0.2
			c-0.3-0.2-0.5-0.5-0.5-0.8c-0.1-0.3,0.4-1.1,1.3-2.2c0.9-1.1,1.6-1.8,1.9-1.9c0.2-0.1,0.3,0,0.3,0.3c0,0.1-0.4,0.7-1.2,1.7
			c-0.8,1-1.2,1.6-1.2,1.9c0,0.2,0.3,0.3,0.8,0.2c0.6-0.1,1.5-0.4,2.5-1c1-0.6,1.6-0.8,1.6-0.8C720,688.2,720.3,688.3,720.3,688.6"
			/>
		<path class="st25" d="M744.8,671.8c0,0.2-0.4,1.2-1.4,3.2c-0.9,1.8-1.4,2.9-1.7,3.4c0.4,0,0.9,0,1.3,0c0.4,0,0.6,0.2,0.6,0.4
			c0.1,0.4-0.1,0.7-0.5,0.8c-0.1,0-0.5,0-1,0c-0.5,0-0.8,0-1,0.1c-0.3,0.4-0.6,0.9-0.9,1.6c-0.3,0.6-0.5,1-0.7,1.3
			c-0.2,0.3-0.5,1.1-1.1,2.5c-0.5,1.2-0.8,1.8-1,1.8c-0.5,0.1-0.7,0-0.8-0.3c0-0.2,0.6-1.6,1.9-4.3c0.3-0.5,0.7-1.3,1.2-2.3
			c-0.2,0-0.4,0-0.8,0.1c-0.4,0-0.6,0-0.8,0c-1.5,2.2-3.1,4-5,5.4c-1.2,0.9-2,1.5-2.4,1.8c-0.8,0.5-1.7,0.9-2.4,1
			c-0.4,0.1-0.8,0-1.3-0.1c-0.6-0.2-0.9-0.5-1-1c-0.1-0.4,0-0.8,0.2-1.2c0.2-0.4,0.5-0.7,0.9-0.9c0.1,0,0.1,0,0.2,0
			c0.1,0,0.1,0.1,0.1,0.1c0,0.1-0.1,0.3-0.2,0.6c-0.1,0.2-0.2,0.4-0.1,0.5c0.1,0.6,0.5,0.8,1.3,0.7c0.8-0.1,2.2-1,4.2-2.5
			c1.7-1.3,3.2-2.7,4.3-4.3l-1.1-0.1c-0.5,0-0.7-0.1-0.8-0.3c-0.1-0.3,0.3-0.5,1.2-0.7l0.8-0.1c0.3,0,0.6-0.1,0.7-0.1
			c0.7-1,1.9-2.5,3.5-4.6c1.6-2.1,2.6-3.2,3.1-3.3C744.5,671.1,744.7,671.3,744.8,671.8 M743.1,673.4c-0.6,0.7-1.2,1.4-1.9,2.2
			c-0.9,1.1-1.7,2.2-2.4,3.1l1.6-0.1l1.1-2.2C741.8,675.9,742.3,674.8,743.1,673.4"/>
		<path class="st25" d="M760.4,680.9c0,0.1-0.2,0.3-0.6,0.7c-0.4,0.3-0.8,0.6-1.3,0.9c-1.6,0.9-2.8,1.4-3.8,1.6
			c-0.3,0.1-0.6,0-0.9-0.1c-0.3-0.1-0.4-0.4-0.5-0.6c0-0.2,0.1-0.5,0.5-1c0.3-0.4,0.6-0.9,0.9-1.3c-0.9,0.3-1.9,0.9-3,1.6
			c-1.7,1.2-2.7,1.9-2.9,1.9c-0.2,0-0.4-0.1-0.4-0.5c0,0,0.2-0.4,0.8-1.1c0.5-0.7,0.8-1.1,0.7-1.3c0-0.2-0.1-0.2-0.2-0.2
			c-0.2,0-0.7,0.3-1.6,0.8c-1,0.5-1.9,1.1-2.8,1.7c-0.1,0.1-0.7,0.5-1.8,1.3c-0.7,0.5-1.2,0.8-1.4,0.9c-0.3,0-0.4-0.1-0.5-0.4
			c-0.1-0.3,0.6-1.2,2-2.7c1.4-1.5,2.3-2.3,2.7-2.4c0.2,0,0.3,0,0.4,0.2c0,0.1-0.2,0.4-0.7,1c-0.6,0.6-0.9,1.1-1,1.3
			c0,0,0.6-0.3,1.7-0.9c0.2-0.1,0.9-0.5,2-1.2c0.7-0.4,1.2-0.7,1.4-0.7c0.4-0.1,0.7,0,0.9,0.1c0.3,0.2,0.4,0.4,0.4,0.7
			c0,0.4,0,0.8-0.1,1c0.5-0.4,1.4-0.9,2.6-1.6c1.3-0.7,2.1-1,2.5-1.1c0.3-0.1,0.5,0.1,0.5,0.4c0,0.1-0.2,0.4-0.6,0.9
			c-0.6,0.6-0.9,0.9-1.1,1.2l-0.5,0.7c-0.2,0.2-0.2,0.4-0.2,0.6c0,0.2,0.3,0.2,0.7,0.2c0.6-0.1,1.6-0.5,2.9-1.2
			c0.3-0.2,0.8-0.4,1.4-0.8c0.5-0.3,0.8-0.5,0.8-0.5C760.2,680.8,760.3,680.8,760.4,680.9"/>
		<path class="st25" d="M768.7,678.1c0,0.2-0.3,0.5-0.9,0.8c-0.6,0.3-1.3,0.5-2.1,0.6c-0.5,0.1-1,0.1-1.5,0c-0.9,1.2-1.4,2-1.8,2.3
			c-0.7,0.8-1.5,1.2-2.3,1.4c-0.3,0-0.5,0-0.8-0.2c-0.2-0.2-0.3-0.4-0.4-0.6c-0.1-0.5,0-1.1,0.3-1.8c0.3-0.8,0.8-1.5,1.3-2.2
			c0.5-0.6,1.1-1.1,1.8-1.5c0.6-0.4,1-0.6,1.3-0.6c0.2,0,0.4,0,0.7,0.2c0.3,0.2,0.4,0.4,0.5,0.7c0.1,0.3,0,0.8-0.3,1.6
			c0.2,0.1,0.6,0.1,1.1,0.1c0.4-0.1,0.9-0.2,1.5-0.4c0.6-0.2,0.9-0.3,1-0.3C768.5,678,768.6,678,768.7,678.1 M763,679.4
			c0-0.2,0-0.4-0.1-0.7c-0.1-0.3-0.3-0.5-0.4-0.6c-0.6,0.4-1.1,0.8-1.4,1.3c-0.8,1.2-1.2,2-1.1,2.5c0,0.2,0.1,0.3,0.3,0.3
			C760.9,682.1,761.8,681.2,763,679.4"/>
		<path class="st25" d="M775.9,678.4c0,0.1-0.3,0.4-0.9,0.8c-0.6,0.4-1.2,0.8-1.8,1.2c-0.8,0.5-1.3,0.7-1.6,0.9
			c-0.5,0.2-1.1,0.4-1.9,0.5c-0.2,0-0.5,0-0.9-0.1c-0.5-0.2-0.7-0.4-0.8-0.7c0-0.2,0.2-0.7,0.6-1.4c0.5-0.8,0.7-1.2,0.8-1.2
			c-0.5-0.2-0.8-0.2-0.8-0.2c-0.1,0-0.3,0.3-0.7,0.9c-0.4,0.6-0.6,0.9-0.6,0.9c-0.4,0.1-0.6-0.1-0.7-0.6c0-0.2,0.2-0.7,0.8-1.7
			c0.6-1,1-1.5,1.3-1.6c0.4-0.1,0.7,0,0.8,0.3l0.2,0.8c0.1,0.2,0.2,0.3,0.5,0.3c0.2,0,0.6-0.3,1-0.6c0.4-0.4,0.7-0.6,1-0.7
			c0.5-0.1,0.8,0.1,0.9,0.6c0,0.2-0.2,0.5-0.6,0.8c-0.5,0.3-1,0.6-1.5,0.9c-1.2,0.8-1.7,1.6-1.5,2.3c0,0.2,0.2,0.3,0.5,0.2
			c0.6-0.1,1.7-0.6,3.2-1.3c0.3-0.2,0.8-0.5,1.4-0.9c0.5-0.4,0.8-0.6,0.9-0.6c0.2,0,0.3,0,0.3,0
			C775.8,678.1,775.8,678.2,775.9,678.4"/>
		<path class="st25" d="M781.7,677.4c0,0.2-0.5,0.6-1.5,1.2c-1.2,0.7-2.1,1.2-3,1.3c-0.7,0.1-1.2,0.1-1.7-0.1s-0.7-0.4-0.8-0.8
			c-0.1-0.7,0.3-1.6,1.3-2.8c0.5-0.7,1.1-1.3,1.8-1.9c0.6-0.6,1-0.9,1.2-0.9c0.4-0.1,0.7,0.1,0.8,0.4c0.1,0.5-0.4,1.3-1.4,2.4
			c-0.8,0.8-1.5,1.4-2,1.8c-0.4,0.3-0.5,0.6-0.5,0.9c0.1,0.4,0.5,0.5,1.4,0.3c0.6-0.1,1.4-0.5,2.4-1.1c1-0.6,1.6-0.9,1.6-0.9
			C781.5,677.1,781.6,677.2,781.7,677.4"/>
	</g>
</g>
</svg>
