<?xml version="1.0"?>
<svg xmlns="http://www.w3.org/2000/svg" viewBox="0 0 512 512" width="512" height="512"><g id="Flat"><path d="M488,208.15A15.842,15.842,0,0,1,472.15,224H431.32A84.35,84.35,0,0,0,388,236a84.227,84.227,0,0,1-43.32,12h-2.97l22.1,30.93a32.013,32.013,0,0,1,1.4,35.06L352,336l-24-8,16-24-39.98-46.65a33.18,33.18,0,0,1-5.65-9.35H256a72.855,72.855,0,0,1-33.75,61.47L168,344v49.37A54.641,54.641,0,0,1,152,432H120l16-24V320l64-64V213.36A21.36,21.36,0,0,0,178.78,192c-10.84-.07-19.91,8.27-21.37,19l-.8,5.85-6.56,48.1A119.127,119.127,0,0,1,32,368H24c57.44,0,96-46.56,96-104V212a132.042,132.042,0,0,1,253.49-51.71,25.873,25.873,0,0,0,42.09,8.13L424,160a38.814,38.814,0,0,1,21.47-34.73L456,120l5.4,10.79a38.832,38.832,0,0,1-3.42,40.33L454.4,176l26.96,19.26A15.848,15.848,0,0,1,488,208.15Z" style="fill:#ffb531"/><path d="M150.05,264.95A119.127,119.127,0,0,1,32,368H24c57.44,0,96-46.56,96-104V227.94q18.24-5.07,36.61-11.09Z" style="fill:#ffa912"/><path d="M488,208.15A15.842,15.842,0,0,1,472.15,224H431.32A84.35,84.35,0,0,0,388,236a84.227,84.227,0,0,1-43.32,12h-2.97l22.1,30.93a32.013,32.013,0,0,1,1.4,35.06L352,336l-24-8,16-24-39.98-46.65a33.18,33.18,0,0,1-5.65-9.35H256a72.855,72.855,0,0,1-33.75,61.47L168,344v49.37A54.641,54.641,0,0,1,152,432H120l16-24V320l64-64V213.36a21.169,21.169,0,0,0-3.08-11.05c52.16-20.59,103.14-47.95,147.74-84.31a131.94,131.94,0,0,1,28.83,42.29,25.873,25.873,0,0,0,42.09,8.13L424,160a38.814,38.814,0,0,1,21.47-34.73L456,120l5.4,10.79a38.832,38.832,0,0,1-3.42,40.33L454.4,176l26.96,19.26A15.848,15.848,0,0,1,488,208.15Z" style="fill:#ffa912"/><path d="M256,256a8,8,0,0,1-8-8V192a8,8,0,0,1,16,0v56A8,8,0,0,1,256,256Z" style="fill:#f98500"/><path d="M298.365,256a8,8,0,0,1-7.435-5.042,41.3,41.3,0,0,1,6.12-41.079L321.753,179A8,8,0,1,1,334.247,189l-24.7,30.879A25.3,25.3,0,0,0,305.8,245.04,8,8,0,0,1,298.365,256Z" style="fill:#f98500"/></g></svg>
