<?xml version="1.0" encoding="UTF-8"?>
<svg width="60" height="60" viewBox="0 0 128 128" xmlns="http://www.w3.org/2000/svg" xmlns:xlink="http://www.w3.org/1999/xlink" xmlns:cc="http://creativecommons.org/ns#" xmlns:dc="http://purl.org/dc/elements/1.1/" xmlns:rdf="http://www.w3.org/1999/02/22-rdf-syntax-ns#">
 <metadata>
  <rdf:RDF>
   <Description about="uuid:cc334bcf-f38c-47b9-b470-6dabc9899722">
    <Producer>Adobe PDF library 6.66</Producer>
   </Description>
   <Description about="uuid:cc334bcf-f38c-47b9-b470-6dabc9899722"/>
   <Description about="uuid:cc334bcf-f38c-47b9-b470-6dabc9899722"/>
   <Description about="uuid:cc334bcf-f38c-47b9-b470-6dabc9899722">
    <CreateDate>2005-02-15T10:37:33+02:00</CreateDate>
    <ModifyDate>2005-02-15T09:37:44Z</ModifyDate>
    <CreatorTool>Illustrator</CreatorTool>
    <MetadataDate>2005-02-15T10:37:33+01:00</MetadataDate>
    <Thumbnails>
     <Alt>
      <li parseType="Resource">
       <format>JPEG</format>
       <width>256</width>
       <height>256</height>
       <image>/9j/4AAQSkZJRgABAgEASABIAAD/7QAsUGhvdG9zaG9wIDMuMAA4QklNA+0AAAAAABAASAAAAAEA AQBIAAAAAQAB/+4ADkFkb2JlAGTAAAAAAf/bAIQABgQEBAUEBgUFBgkGBQYJCwgGBggLDAoKCwoK DBAMDAwMDAwQDA4PEA8ODBMTFBQTExwbGxscHx8fHx8fHx8fHwEHBwcNDA0YEBAYGhURFRofHx8f Hx8fHx8fHx8fHx8fHx8fHx8fHx8fHx8fHx8fHx8fHx8fHx8fHx8fHx8fHx8f/8AAEQgBAAEAAwER AAIRAQMRAf/EAaIAAAAHAQEBAQEAAAAAAAAAAAQFAwIGAQAHCAkKCwEAAgIDAQEBAQEAAAAAAAAA AQACAwQFBgcICQoLEAACAQMDAgQCBgcDBAIGAnMBAgMRBAAFIRIxQVEGE2EicYEUMpGhBxWxQiPB UtHhMxZi8CRygvElQzRTkqKyY3PCNUQnk6OzNhdUZHTD0uIIJoMJChgZhJRFRqS0VtNVKBry4/PE 1OT0ZXWFlaW1xdXl9WZ2hpamtsbW5vY3R1dnd4eXp7fH1+f3OEhYaHiImKi4yNjo+Ck5SVlpeYmZ qbnJ2en5KjpKWmp6ipqqusra6voRAAICAQIDBQUEBQYECAMDbQEAAhEDBCESMUEFURNhIgZxgZEy obHwFMHR4SNCFVJicvEzJDRDghaSUyWiY7LCB3PSNeJEgxdUkwgJChgZJjZFGidkdFU38qOzwygp 0+PzhJSktMTU5PRldYWVpbXF1eX1RlZmdoaWprbG1ub2R1dnd4eXp7fH1+f3OEhYaHiImKi4yNjo +DlJWWl5iZmpucnZ6fkqOkpaanqKmqq6ytrq+v/aAAwDAQACEQMRAD8A9U4q7FXYq7FXYq7FXYq7 FXYq7FXYq7FXYq7FXYq7FXYq7FXYq7FXYq7FXYq7FXYq7FXYq7FXYq7FXYq7FXYq7FXYq7FXYq7F XYq7FXYq7FXYq7FXYq7FXYq7FXYq7FXYq7FUm8x+b/L/AJcgEuq3awu4rFbr8Uz/AOqg3+np75Rn 1MMQuRc/Q9m59UaxxvvPQfFiT/mnrt21dH8rzy25PwTXkyWxYf6hB/4lmCe0Jy+iBrzNO6Hs/hh/ e54iXdGJl9v7Ef5e/M6G91SHSNa06XRtRuDS15sJYZW/lWQBfiPYU9q1y3DrxKXDMcMj8nG1vYJx 4zlxTGWEefQj4M3zYPPuxV2KuxV2KuxV2KuxV2KuxV2KuxV2KuxV2KuxV2KuxV2KuxV2KuxV2Kux V2KuxV2KuxVJ/N3mS38ueX7rVZgHMK0giJp6krbIv39fbKNTnGKBkXO7N0MtVnjiHXme4dXz9b+Y PW1GXWdTkFzq1w3JpWpSMdlQdFoNts5mOa5cct5F9Lno+GAxYxw449O/3qln5xvhf3Es5ZYLhVa2 5VA4ISlV+ZB+nDHUniJPIscvZkOACPOPP47rNd8yC9sgFcieB1mt5AfiV1PUH5Y5s/EPMMtJofDn y2Io+59H6Xdm80yzvD1uYI5j/s0DfxzqccuKIPeHyzUY+DJKP82RHyKJybS7FXYq7FXYq7FXYq7F XYq7FXYq7FXYq7FXYq7FXYq7FXYq7FUs1HzR5b00st/qdrbOu5jklQP9CV5H7soyanHD6pAfFzMH Z+oy/RCUvcDXzY9d/nD+X9vUDUTOw/Zihlb8SoX8cxJdracfxX8C7TH7Ma6X8Fe8j9aXv+evkhWI C3jAftCFaH73Byo9tYP6XyckeyGs/ofP9jX/ACvjyR/vu9/5FJ/1Ux/lrD/S+X7U/wCg/Wd8Pmf1 Iy2/On8vpjR76SCppWSCWn/CK+Wx7XwHrXwLjz9lddHlEH3SH6aT3T/PPk/UCBaaxaO5pSNpVRzX wR+LfhmTDWYp8pB12bsnVYvqxz+V/aE8BBAINQdwRmS6545/zkHqj00jSlaiH1LqZa9SKJGf+J5o u2cn0x+L3XsZpx+8ynyiPvP6HjeaJ7plPnS1ittL8qxoAGbSVlanX97PLJv9LnMzVRAjj/qfpLp+ y8hnkzk/6rXyjEfoYrmG7l9b+XEaPy9pcbfaS0gU/MRKM7XAKhH3B8U1xvPM/wBOX3pjlriuxV2K uxV2KuxV2KuxV2KuxV2KuxV2KuxV2KuxV2KpP5h83+XfL0XPVb1IHYVSAfHK3+rGtWp79Mx9Rq8e Ies197n6LszUao1iiT59Pm8v1/8AP65ctFoOnrEnQXN2eTEe0aEAfSxzR5+3Tyxx+J/U9jovYyI3 zzvyj+s/qDz3WfPHmzWC31/VJ5I26wo3pxf8i4+K/hmoza3Nk+qReo0vZGlwfRjiD38z8zugtO8v 67qf/HP0+5ux/NDE7qPmwFBlePT5J/TEn4ORn1uHD/eTjH3kMgtPyi8/3IDfoz0UP7U0sS/8LyLf hmZDsrUH+GviHVZfabQw/jv3A/qpMF/Izzuygk2iE/smZqj7kIy8di5/6PzcQ+1+jH8/5ftaP5F+ df57P/ka/wDzRh/kXN/R+f7Ef6MNH3T+Q/WgLr8m/P8AAKrYpOB19KaKv3My5XLsnOOl/EOTj9qd DLnMx98T+gFj+o+UPNWnVN7pN1Ei9ZDEzJ/wagr+OY09Jlhzifk7LB2ppsv0ZIn47/LmoaT5m8wa OwOmajcWgBqUikYIT7pXifpGRxZ8kPpJDZqdDgz/AN5CMveN/nzRWvea9a8y3EF1q8yzXFvEIFkV VSqhi1SFotav2GW5tRPKQZcw1aPs7FpYmOIVEm+9LMqctPvN1+l2+kRo3IWelWluadjwMhH/ACUz J1M+Lh8ogOu7NwmAyE/xZZn7a/QlFhaSXt/bWcf95cypCnzkYKP15RCPFIDvc3NkGOEpnlEE/J9f oioioooqgKo9htncAPiBNmy3ih2KuxV2KuxV2KuxV2KuxV2KuxV2KuxV2KuxVB6tq+maTZPe6lcJ bWsf2pHNN/BR1YnsBvleXLHHHikaDfptLkzzEMYMpF4x5x/PDUrwyWnl1DY2u6m9cAzuPFRusY+8 /LOb1fbUpbY/SO/r+x9A7L9kceOpaj1y/m/wj39/3e955Y6drmv6iY7WGfUb6U8pGHKRjX9p3PT5 sc1EMeTLLYGUnqM2fDpsdyMYQHw+Q/U9K8u/kJeyhZtfvRbKdzaWtHkp4NIfgU/INm60/YcjvkNe QeS13tlCO2CPF5y2Hy5/c9G0X8ufJmjhTa6ZFJMv/HxcD1pK+IL1C/7EDNxh7Pw4+Ud/Pd5TV9u6 vP8AVMgdw2H2fpZGAAAAKAbADM11DROKrScVWk4qtJxVaTiqSaz5Q8sayG/SWmwTu3Wbjwl/5GJx f8cx8ulx5PqiC5+l7U1OD+7nIDu6fI7PEPzN8m6b5Y1a2i00yfVbuIycZWD8XVqEKaA0pTrXOc7Q 0kcMgI8i+jez3auTWYpHJXFE1sw7MB37iSTUmp2G/gNhirMfyj0k6j570+orHZ8ruTvT0h8B/wCR hXM7s3HxZh5buj9pNT4Wjn3y9Pz5/Zb6WzrHyd2KuxV2KuxV2KuxV2KuxV2KuxV2KuxV2KuxVjHn jz/pHlSz5Tn6xqEq1trFDRm7cmO/FK9/uzB1uuhgG+8ugdx2R2Ll1s/T6YDnL9XeXzz5l81a55m1 D61qMxkapEFulRHGD+zGn8ep75yOo1U80rkX1LQdnYdJj4cYrvPU+8/gM58kfkpfX4S+8xF7K0NG SyXadx/l1/ux7fa+WbTRdjSn6snpHd1/Y852t7WQxXDT+uX87+Ee7v8Au972fSNF0rR7NbPTLVLW 3X9hBQk+LHqx9znR4sMMYqIoPAanV5c8+PJIykjMtcdonFVpOKrScVWk4qtJxVaTiq0nFVhOKvKv z4sy1lpN6BtFLLCx/wCMiqw/5NnNJ21D0xk9t7GZankh3gH5bfpePZoHvnYqld5r2qaVrNlcaVdS Wl5akzLNEaEE7AHxBAIIOxB3zM0xMbkObqu0YRykY5C49X0d+V/5yWXmRIdL1nhZ69QKjfZiuT/k V+y/+R37eA3mj7QGT0y2l97w/bXs5PTDxMfqxde+Pv8ALz+b03Nk8w7FXYq7FXYq7FXYq7FXYq7F XYq7FXYqw78xPzEsvKtl6UXGfWJ1/wBGtuyjp6klOijsP2vvI13aHaEcEaG8zyH6S77sPsOetnZ2 xDmf0Dz+589k635k1r/dl/qt9J82Zj9wVQPoA9s5L15p/wA6Un1H9zpMPSGOA/H45kvd/wAvfyq0 7y7HHf6gFu9bIBDneOA+EQP7X+X91O/U6DsyOH1S3n93u/W+bdt+0WTVEwx+nD9svf8Aq+bPs2rz LWKtE4qtJxVaTiq0nFVpOKrScVWk4qsJxVaTirDfzX0/675KvCBWS0ZLlP8AYNRj/wAAzZgdp4+L CfLd3/szn8PWx7pXH58vtp8+5yj6q7FWdaN+XWm+YrGO2ul9K4RaRXaD40IHJq/zKWNKHOqjoYnC IHmB9r5ZLt7JDWTzR3gZcuhiNh7jQYD5m8s6z5Y1T6pfIY5FPO3uUrwkUHZ422/qM0GfTzxSqT6R oO0MOsx8cDfeOo8i9q/J784P0r6Pl3zDN/uU+xY3zn/einSOQ/788D+1/rddzoNfxeif1dD3vEe0 Xs94V5sI9H8Uf5vmPL7vdy7Dm2eNdirsVdirsVdirsVdirsVdirsVY/5384WXlbRXvpqSXL1Sztq 0Mkn/NK9WOYmt1ccEOI8+gdp2R2XPWZhAbRH1HuH6+5813FxrPmTXDI/O91O/koqjcszbBVHZR27 AZxkpTzTvnKT61CGHSYaFQxwH4/HV9B/l3+Xll5VsfVl4z6xOo+s3PZQd/Sjr0Udz+19wHW9n6CO CNneZ5n9AfL+3O2562dDbFHkP0nz+5mObF0LWKtE4qtJxVaTiq0nFVpOKrScVWk4qsJxVaTiqwnF UJqNpHe2FzZS/wB3cxPC/wAnUqf15DJASiQerbgynHkjMc4kH5Plp0eOR4n+3GxRqbiqmhziZCjT 7bCQkAR1VbHh9fthJ9gyKD867fjmRowDljfK3A7XlMaXIYc+A/t+x755LshDY+r4gKp+fxN+JzsX xxFeafLOl+Y9LfT9QSqn4oZl+3E/Z0P+dcpz4I5Y8MnO7P7QyaTIMmM+8dCO4vmnzN5d1TyzrL2F 3VZYzzt7hKgSJX4ZEP0fQc5jNglilRfW9Br8erxCcOR5juPcX0J+TH5oDzRp36J1SQfp+ySpc/8A HzCNvUH+WvRx9Pc03mg1fiDhl9Q+1899o+xPys/Exj91L/Ynu93d8vf03Ni8w7FXYq7FXYq7FXYq 7FXYqpXV1b2ltLdXDiK3gRpJZG6KqipJ+QyMpCIJPIM8eOU5CMRcjsHzB57833PmjXpb5qpaR1js YD+xEDsT/lN1bOI12rOfIZdOj7D2P2ZHR4BAfUd5HvP6h0et/k/+X66PYLrmoR/7lLxKwIw3ghbp /s3G58Bt450HZOg8OPiS+o/YHiPaftrx5+DjP7uB3/pH9Q/b3PSc3LyTWKtE4qtJxVaTiq0nFVpO KrScVWk4qsJxVaTiqwnFVhOKsd8++YP0H5Vvr5W43BT0bXx9WX4VI/1a8vozG1ebw8ZPV2fY+j/M amED9N2fcP18nzjGvFAO/fOOL7CGpSypzXZkIYH5ZKBo2wyQEokHkXvv5eaot7oEZBrxAI+TDp+G drjnxREu98U1OE4skoHnEkfJkxOTaWL+ffJ1p5p0V7ZqJfQ1exuCN1en2Sf5XpRvv7Zi6rTDLGuv R2/Y3astHm4ucD9Q8v1jo+c7G/1nyz5gjuoC1pqmmzdG7OhoysO6noR3Gc5EyxzvlIPq2THi1WGj 6scw+v8AyX5ssPNXl211mz+ETDjPDWpimXaSM/I9PEUOdPgzDJESD5B2joZ6XMccunI946FPMucF 2KuxV2KuxV2KuxV2KvJPz183GC2h8tWr0e5AnvyOojB/dx/7JhyPyHjmg7b1dAYh13L3Hsf2ZxSO okNo7R9/U/Dl/YxH8ofJa6/rpvbxOWmaaVkkU9JJTvHH7jbk33d81/ZOj8XJxH6Y/e7z2m7V/LYe CB/eZPsHU/oH7H0TnXvlbWKtE4qtJxVaTiq0nFVpOKrScVWk4qsJxVaTiqwnFVhOKrCcVeL/AJ2a /wDWtZs9BiasVkv1q7Hb1ZBSMH3VN/8AZZoe1824gOj3/shoqhLMf4th7hz+Z+55xLMsZQHq7BR9 OaQC3tCaXkAgg9DscCXo35MavT1dPkb4kLIB+IP8M6rszJxYq7ny/wBqNN4eq4ukxfxGx/Hm9XJz YPNrCcVeQfnf5PDxL5ms0+OPjFqKqOq/Zjl+j7J+jwzUdpaf+MfF7n2R7Vo/lpnY7x/SP0/NKfyE 89nQfNI0i7kppeslYtz8Mdz0iffpyrwPzHhmP2fn4J8J5Sdv7UdmePg8SI9ePf3x6j9P9r6jzfvl 7sVdirsVdirsVdiqjfXtvY2U97ctwt7aNpZW8EQFmP3DIzmIxMjyDZhxSyTEI/VI0Pi+Udc1a817 XbrUZQXuL2UlYxuQCeKRr/qrRRnB5sssuQyPORfatJpoabDHGPpgP7T+l9LeR/LUflvy1aaaAPXC +pduP2p33c170+yPYDO00WmGHEI9evvfI+19edXqJZP4eUf6o5fr96e5lOtaJxVaTiq0nFVpOKrS cVWk4qtJxVYTiq0nFVhOKrCcVWE4qg9U1G203T7nULpuNvaxvNKe/FBU09/DIzkIgk9G3DhlkmIR 5yNPmK41C51S+u9Vuv8Aei/laZh2UMfhUewGwzjtRkM5kl9l0WmjhxRhHlEUgjZT36308VeFhHVa d3B5N9yg5labTGUJS7h+Psdf2h2nHDmx4/58q/Hxr7VeCQSwpIP2gDmvkKNO5ibFpt5M1NtL81ws DRLoCnhzTf8AVm37Jy1Lh73k/a3S8eATHOB+w7H9D6FSVZI1kU1VwGB9jvnRPnDROKoa+tLa9s5r O6QSW9wjRTRnoVYUIyMoiQo8mzFlljmJxNSibD5W8y6Pc6Br93pshIe0lIik6FkPxRuKeKkHOZy4 jCZj3Ps+g1cdTgjkH8Q+3qPm+ufyw82jzV5L0/VHYG8C/V74A1pPF8Lk+HMUengc6HTZfEgD1fKO 2dD+V1MoD6ecfcf1cvgyrL3VuxV2KuxV2KuxV51+eOumw8ppp8bUm1SURkd/Sio8n48R9OaftrPw YuEc5H7HqvZHR+JqvEPLGL+J2H6Xm/5O+X11bzlDNKvK201TdPUVBdSBEP8Agzy+jNN2Rg8TMCeU d/1PW+1Gt8DSED6snp+HX7Nvi+jM7F8oaJxVaTiq0nFVpOKrScVWk4qtJxVYTiq0nFVhOKrCcVWE 4qtJxV5T+eXmTjZ2nlm3f99fsJ70D9m3jaqg/wCu4r/sc1Xamfhjw9713spoOPKcx5R2Hv6/Ife8 kvJ1trVpBtxFEHudhnOQjxGn0ScuEW9B/Lryz/occEycnnB9cHu0g+Ov+qm2dfpsIhjET8XyLtbX nPqTMHaO0fh+3dgcljJpep6jo8pJfTriSJSe8fI8G/2Q3zmNXi4JkPqPZ2pGbDGY6i1C+eSFY7uL +8tnWQfIHcZDTZDGYIbNbgGXFKB5EV830H5N1ZNS0C3nVuVFG/sRUHOxjIEWHxnLjMJGJ5xNJ0Tk mtTZsVeO/n1oI/0DXol33tLoj6XiJ/4YV+WantLFyl8Hu/Y3W/XgP9Yfcf0fajf+cYvM7Qa1qXly Vv3V7ELu2B6CWH4XA93Rq/7HI9m5KJj3t/tjo+LHHMOcTwn3Hl8j976NzcPnrsVdirsVdirsVfPv 556sbrzgtkD+7063SMr/AMWS/vWP/Asucl21l4s3D/NH7X0/2Q03BpOPrOR+Q2/WzX8h9HFt5Zud TZaS6hOQreMUHwr/AMOXzZ9h4eHEZfzj934Lz/tjquPURx9IR+2X7Kelk5unkFpOKrScVWk4qtJx VaTiq0nFVhOKrScVWE4qsJxVYTiq0nFUPeXcFpazXVw4jt4EaSaQ9FRByYn5AYCQBZZQgZyERuTs +ZNW1q48wa7fa7OCPrTlbaM/sQJ8KL9w39985HWZzkmS+wdlaIafBGA6ff1QunWh1TX4bcDlb2dJ ph2L/sL9/wDHMrszT8UrLrPaXtDwcBiPqlsP0/Z9733yhpot7X1mG4HBT4nqx+/bOlfMHmP5y6V+ jvONlq6LSDV4vQnI/wB/w0AJ+aFQPkc0fa2H+J7/ANktZcDiP8J+w/t+9iToroyNurAgj2OaEGnt SLZz+Sutsn1jR5m+OFiq17g7qf1jOr7OzcWOu58v9p9H4Wo4xyn945/oL1hmzPebWE4qxv8AMHSh qvk/VLQCsghM0Pjzh/eKB8+NMo1MOLGQ7TsXU+Dq8cunFR9x2eA/l3rzaH550TU+XCOG6jWdv+KZ T6Uv/JNzmj08+GYL6l2tpvG02SHfE17xuPtfbudG+MuxV2KuxV2KuxV8o+dL83/m3V7smoku5Qh/ yFcqn/CqM4TWT480j/SL7V2Vh8PS4490B863+19H+RrAaf5O0e1pxZbWN3WlKPIvqP8A8MxzsdFj 4MMR5Pk/bGfxdXkl/TPyGw+wJ2TmU61aTiq0nFVpOKrScVWk4qsJxVaTiqwnFVhOKrCcVWk4qsJx V5b+d3mYw6fB5atJKXOpUkuyOqWyHp/s2H4HxzWdp6jghwjmXq/Zbs7xMpyn6Y8vf+wfeHkdzPHZ 2jPSixrRF8T0AzmoxMi+jykIhmv5a+XZY4UkkWt1csJZSevN/sg/6q7n3zrtHh8OA7y+Tdua78xq DR9Mdh+k/F7RBEkECQp9lBQe/vmU6ZiP5seXm1zyXeRwryvLKl7aU684QSQPdkLAe+Y+qx8cCHa9 javwNRE9Dsfj+14hY3S3VpFOP21qw8CNiPvzj5x4SQ+uwlxAFEaTqL6N5ms9QU8YpiIZj71+E5su zM/DOi8/7SaHxtOSPqjuPh+x9D21ylxbRzoarIoYfTnTPlq5mxVTehBBFQdiDir5L12y/R+s39hQ j6rcSwivhG5Ufqzm5w4ZEdz7Xpc/i4YT/nRB+YfcPlPUzqvlbSNTLcmvbK3ncnc8pIlZq+9TnQ45 XEHyfHdbi8PNOH82RH2prk3GdirsVdiqyeVYYJJm+zGrOe2yiuCRoWyhHikB3vj5RJc3KrWskzgV /wApj7fPPPgLPvfdCRCPkA+vo0WKNI0FFRQqj2AoM9BAoU+FSkSbPVxOFC0nFVpOKrScVWk4qsJx VaTiqwnFVhOKrCcVWk4qsJxVCalqFrp9jcX12/p21tG0srnsqip+nIzkIgk8g2YcUskxCO8pGnzT qerXWuazea3d7S3j/uo/99wrsiD5KBnI6vOckyX2Hs3RR0+GMB0/BKG0+xOra3Hb8eVraEPMOzSH 7Cff/HMzszTcUrPJ1PtJ2l4GHhifXLYfpPw+97x5R0sW8HrMNwOKnxY/aP8ADOkfMGRE4qsY9sVf OXmDRD5c836jo4XjZzN9c07sPSlNeI/1DVfozmO0sHBO31f2f13j4AT9Q2PvH6+aCvbcXFs8X7RF UPgw3Ga6EqNu7nHiFPV/yq8xnUtCFtM3+k23wuD122P9c7DS5vEgD1fIO2NF+W1Eo/wnce4/q5M1 JzIdYtxV8zfmlbi28+6xGOjSpJ9MsSSH/iWaLVRrIX1bsHLxaLGfKvkSH1H+R12bv8qvL8prVYpY t/CGeSIf8Qza6U3jDwHb0OHWZB5g/MAs6zIdQ7FXYq7FUHrX/HGv/wDmHl/4gcrzfQfcXI0n97D+ sPvfJ2jH/cxYf8xEX/ExnC4frHvD7Vq/7qf9U/c+tyc758NWk4qtJxVaTiq0nFVhOKrScVWE4qsJ xVYTiq0nFVhOKrCcVeR/nP5nM0kXli0f4Txn1Mr4DeOI/wDEj/sc0vaupocA+L23sp2ZZOeQ8o/p P6Pm8xupvQg+AVc/DEo7k9Ns0WOPEae7yTEI2We/l95YaGOJCKzu3KR+tZG6n5IM6/S4fDgB1fIe 19edVnMv4RtH3ft5vXYokhhSKMURBQZkOscTiqmzYq87/OTy697okWtWicr7R29RqdWt22kH+x2b 5VzA7Qw8cL7no/ZrXeDn4CfTP7+nz5PMYZUliWRN1cAj6c5UijT6gDYtH+U9XfQvMsU9aWt2eMo7 Bv7c23Zep4ZcJ5F5b2o7O8XD4kR6ob/Dr+t7rHIkkayIao4DKfY50b5quxV84fnPQfmBfe8cFf8A kSuabWf3hfS/Zw/4HH3y+8voj/nHQk/lRpn/ABmuv+oh8z9H/dh5D2j/AMcl7o/c9LzKdG7FXYq7 FUJq6NJpV6i7s8EqqPcoRleUXA+5u0xrLE/0h975J0qRY9Us5G+yk8bN8g4OcLiNSHvfbdSLxyH9 E/c+uSc758MWk4qtJxVaTiqwnFVpOKrCcVWE4qsJxVaTiqwnFVhOKpR5m1+20LRbnUp6H0V/dR1o XkOyIPmfw3ynPmGOBkXM7P0UtTmjjj15+Q6l86TXNzd3U99dv6l1dOZZnPixr9wzj8uQzkSX2LT4 I4oCERUQKRXlrS31LUlumWsMJ424PQv3b/Y5uOy9LZ4z0+95H2q7U4I+DE+qXP8Aq/t+57h5Z0xL S0EtKFhSOvXj4/7I5vnz9OCcVU2bFVhOKpbfaxocKPHe3ttEjAq6zSxqCCNwQxyEskRzIcjFp8sj cIyPuBeB3tvYabrl5p1jdR3dgHMllPE4kXg2/DkpO69PxzldbiEZnhNh9Y7J1M8mGJyAxn1BFb/t 5rLiESxFOh6qfAjpmJGVG3ZTjYp6D5P/ADJ0m20iO01eV47mD4ahGeoH+qDnS4e0sfAOI7vmut9m NQMsvCAML23Hy+DIY/zJ8nOKm+K+zQzfwQ5b/KWHv+wuIfZrW/zL/wA6P63iP5qSNq3nO9v9PR7i zZYVjmRSQ3GJQ1BSuxqM1+o1EJzJBe07G0mXDpYwmKlv95fSH/OPEDxflPpPPZnkumK9Cv8ApMi0 IP8Aq1za6P8Auw8T7Qn/AAyXw+4PSMyXSOxV2KuxVzKrKVYAqRQg7gg4qDT45vrd7S+uLZqh7eV4 z41Riv8ADOAnHhkR3PuuKYnAS/nAH5vrTT7xbzT7a7XdbiJJR8nUN/HO8xy4og94fD8+Pw5yj/NJ HyVicm1LScVWE4qtJxVYTiqwnFVhOKrScVWE4qsJxVYTirxD80PNH6Z1kWFu/LT9OYrUdJJ+jN7h fsj6fHOZ7T1XHPhH0x+99N9meyvAw+JMevJ9keg/Sf2MM9J7iVbZCF5/3jnoq9ycw9NhOSQDutfq xgxGZ37h3noGcaDqvlLSI41u72NEUU4RhpW4jfj+7DfEx61zpRqcOKPCCNvi+Zy7M12qyHIYSuXf 6fvZJJ+Z4nWmi6Df3yjZZGQQQnw+M8/xGQPaA/hiS5MPZuQ/vMkI/aflsg5vMv5kXW0VrpmkIR9q 5mMzj/kUWH3rlUtbkPSIcuHYukjzOTJ7hX3/AK0vnHmOffVPOjRL3isYEj+dJAUb7xlMtTLrP5Ob j7Pwj6MF/wBYk/Yk93aeQhU6nrGoam/7QubsEHr+yBy7+OUSzRPMyLn49PnH0xhD3RQn6T/K20r9 X0lJG8ZGnlr/AMGxXKzlj0i5A0uoP1ZPu/QEr1LVPLd3L6tjphtZOxgQBTT/ACf6UyjIDPkHNwHw RU5g+/n80LFKkqcl+RB6g5hyjTs4yBFhF2eqS2BZkHJWpyFK9MnjmRyac2CM+ad2fnQKAJYvhPWq gjMkagjmHWz7PjI+k7pvb+YfLt2KXFlbSE9S0SBvvoDlgzwlzAcaeizw+mUh8Si7WPTbeT615fvp 9GveoMMjNEx60dGJqPatPbJxERvAmJachySHDnjHLDzG/wAC9Q/Ljztc+YLa6stSRU1jTSq3Bj+x Kjj4JV8K03H9aZt9DqjlBEvqi8h252VHTSjPH/dT5XzHkzLM90TsVdirsVfLH5n6cdO8+azDSiyT m4XwIuAJdvpemcX2hj4c8h538932HsDP4uixnujX+l2/Q9w/K7VBqHkXSnrV7eM2zjw9Biij/gAD nTdm5OLBHy2+T5x7Q6fwtbkH848X+m3+9lJOZzpVhOKrScVWE4qsJxVYTiq0nFVhOKqUs0caNJIw SNRVnYgAD3JwEgc0xiZGgLLGtS/MPynZMU+ui6m6CK1BmJPgCvwf8NmHk7Qwx62fLd3On9n9Zl34 OEd8vT+37GO6/wCfNcudKujp2kzWMBjNb+7ZYmRTsSsZ6se1D1zCz9ozlA8MTHzLutB7PYYZY+Lk jM39MRd+8/fs8qt47YsDPIVTuqCrH+AzQgDq97My/hCqr6BESzW8lw3X969B9yccsEojo48seU/x Ae5FW/mKSE/7jdOjjcdHiiBb6Wpyy/HLJL6Y/Jw9RjwwF5cn+mNL31Xzjd9P3QPQs38BvmXHR6iX PZ1OXtjs7FyPEfIE/qH2uXQPM93vPeyKD2RSB/wR45kQ7KP8UnX5favGP7vH86H6/vRMH5dyXBrM 8s7dwzlv+Ij+OZMOzMY52XW5fanUy+kRj8P1lNrX8sIRT/RR/sx/zWx/VmRHSYh/C67J21q588kv ht91Jtbfl1BGBRY09hQf8RXLhjiOQDhT1OWf1SkfeSmEfkazH2nFfkx/42GTaGGeefJTaOw1WyrJ ZSELdIB/duej99m/X880Hamjr1x5dX0D2X7Y44+BM+ofT5ju94+73MT5KR7HNI9qmeh6hZ20vo3y GSzau67sh9hUVFeubPQ6/wAP0y3h9zzPbnYA1P7zF6co/wBl+3uPw93OtIvtdj1pLd5HdZJD60El SFBNWIrUrTqMlqI45RMq+TmaWOXHMRBJHcWcx3M8f2JCPpzViRDt5QieYez/AJC6ZeMmqa5cV9O4 9O2gJ/a9OrOfkKqPvzfdj4z6pnrs8H7YZ4Awwx5i5H48v0vXM3bxLsVdirsVeF/85DaKYtU03WUX 4LmJraZh05xHktfdlc/dnOdt4qlGffs+h+xmqvHPEf4TxD4/2farfkFrgMWpaI7bqVvIBXsaRy/d RPvy3sTNtKHxcf200m8Mw/qn7x+l66Tm+eEWk4qsJxVYTiqwnFVjNirGdY/MHy3p0v1ZJmv70mi2 lmPWct4VHwg+1a5hZtfigavil3Dd3Wk7A1OYcVcEP50th+tJ5tb8+6pX6tbQaDaHpLcn1binslKA +zL9OYstVnnyAgPPcu0x9maHD9cpZpd0do/P9RSDU7XyzBIZPMWsz6tcqd4ZJCEB9oYyWX78w8gh zySMj+OjudNLORWnxRxR7wN/9MeaAl876ZYQn9DaUIY+nq8FiBJ/ygGZvpyBz8MbjGh38m2OgOWf BlyiU/5t2fl0YxrPmfVNWUR3DBYQa+mlQCfepNcwcuolPm7zS6DHh3jzXaJoTXzAyA8W+yOm3dj7 ZstB2cMg458ujzfb/tHLBPwsFcQ+o868vf3swsfy7qFb0RQ7hiAPxck/hm5x6PFDlEPG5+2NXl+r JL4bfdSeW3kWBAPUZRT5t+HwjMkB1xJO5TODy1psI6E+woo/4UDFCKSwsYvsQID4kVP3muKqpIAo Nh4YqtxV2KuxVZPDDPC8MyCSKRSsiMKgqdiCMEogiiyhOUJCUTRDyDzh5HutGma5tA0umOfgbqY6 /sv/AAOc1rez5YzxR3h9z6b2J7Qw1IEMh4cv2S93n5fJihdlPxCma2npm1cF+QUGSlOVN6eFcaWm Z+Qvy91jzVeKeLW+lI3+k3xG1B1SOuzP+rvmXpNFLMe6Pe6XtftrFo4fzsh5R/Se4ff0fSelaXZa Vp1vp9jGIrW2QJEg8B3PiSdyfHOqx4xCIiOQfKtRqJ5shnM3KSKybS7FXYq7FWI/mt5dbXfJV9BE vK6tB9bthSpLwglgPdkLKPnmD2jg8TCR1G7u/Z7W/l9XEn6Zek/H9tPnbyN5iPl/zTY6kxIt1f07 ob7wyfC+w68QeQ9xnM6PP4WUS6dfc+l9saL8zpp4/wCKrHvHL9T6jDqyhlIZWFQRuCD3ztHxoilp OKFhOKrCcVYnrv5habZ3BsNMjbVtV6C2t90Q/wDFkm4WnelfemYGfXwgeGPql5O+0PYGXLHxMh8L F3y5n3BjOox6xqUTT+atWFnY9Tplmwjjp4SSH7Xy39jmBklOe+WVR7g7/TQwYDWmx8c/58tz8B0+ xK1836TpyNa+V9MVj9lrinFT/rSN8bfSchjne2GN+f7W7U4a9esy8PlzPwiP0BAyjzTrJJu7t1hP WGD92nyLd/prmVHs+c/7yXwDqsvtBgxbafHZ/nT/AFftCLt/JttZ2r3t0BFbxDlJOw2A/wBd+/sB mXHTYcI4qArqXVZO0tbrJiHFImX8I2H2fpYVq+oJeXRMKlLZKiJSakj+Zvc5zut1ZzS/ojk+h9i9 kR0eKueSX1H9A8gu0nTJLyZSVJjrQD+Y+GXdn6HxTxS+gfa4ntB22NLDggf3sv8AYjv/AFfN6r5W 8voiCWVRwHXwZh2H+SudOBT5eSSbPNlZOFCwnFVjNiqmTiq3FXYq7FXYq7FVskcciNHIodGFGVhU EHxGKvnD81tYTTfN89hoDLHb2qKtyhCupmb4mAJ3+EEDr1rml1eDEZ8vk+gdiZdUNOJGZN8gd9nq n/OOvkiPXtAufMnme1ju0ln9LS4WUhAkNRLIVB4uGc8fir9k5bpez8VcRF+91/bXbmqhLw4y4dt6 /X+p79DBDBEkMEaxRRjikaAKqgdgBsM2gAAoPIymZGybJX4WLsVdirsVdirsVfKn5o+VG8tebbq1 jTjY3J+s2JA29OQn4P8AYNVflTOP1+n8LKR0O4fX+we0PzWmjI/XH0y946/Hm9W/J7zcNY8uLp1w 9b/SwsTVO7w/7qb6AOJ+Xvm97L1PiY+E/VH7nh/ajs3wNR4kR6Mm/wAev62eE5s3mFjuqqWYgKBU k7AAYpAt5X5g833nmO5ms9PuGsvL8TGOa6Q0luSOoQ/sp/mfDNFqNYcpMYmod/UvddndkQ0kRPIO POdxHpH3+f4HekknmC00uP8AR2hWqmY/ap/xKR+pzGhLfgxCz+ObsM2IV42pnUB+KiEPb6HqerTL PqMrTmvwqaiJfZVHXNjh7NH1ZTxHu6PO6z2kIBhpo+HH+d/Ef1M00fyOqqrSqEUdOY3+hOg+nNpG IAoPMzySmbkSSe9O7z9AaBZNeXrKkcfR5PiYnsqL3PsBkMuaOOPFI0G7SaTJqJiGMcUvxzeQec/O 175iuQgBg02IkwW1dyf55KdWp92cvrdbLMe6Pc+odjdiQ0cb+rKeZ/QPL70m07TpbyUAAiMGhI6k +A98dFojmNnaIR2323DRwob5TyH6T5fe9N8reWRQMyhUXZiOw/lX38TnVQgIihsA+V5csskjOZuR 5lmyqkaBEAVFFFA7DJNa0nFVjNiqmTiq3FXYq7FXYq7FXYqkfnTzNb+WvLl3qstDJGvC1jP7c77R r9+59q5XlycEbczQ6Q58ogPj7ur5c0nTNW8zeYrfT7etxqeq3AUO29ZJWqzuR2FSzHwzUAGR8y+i 5Jww4yTtGI+595eXNCstA0Kw0ayFLWwhSCMnq3EULH3Y7n3zcxjwig+Z58xyzM5c5FMck1OxV2Ku xV2KuxV2KsG/N3ySfM/llntY+Wq6dWezoPicU/eRf7MCo9wMwO0dL4uPb6o8noPZ3tT8rnqR/dz2 Pl3H4fdb528o+Z7ry3r1vqcNWVDwuYenqRN9tf4j3pnOaXOcUxIPpHafZ8dXgOM/A9x6fjufT2n6 lZ6lYQX9nIJbW4QSRSDuD+ojoRnXwmJxEhyL45nwTxTMJipRNFjn5m31zaeTNQeAlXkCQsw7JI4V /vU0+nMTtGZjhlTt/ZzDHJrYCXSz8QLH63iL6zKsKQQDjGg4rnMeLtQfThpQTZ5qvl/VrW0vSb5C 8ErVdl3IPuO4zN7P1owkiQ2LpfaDsSerjE4z6odDyP7Xrel+aPIttbrKmpws9B8ThlYewQgEfdm8 GvwkXxB4aXYOtBrw5fjz5JXr35u6RbI0ekRte3HRZXBjhB8d6O3yoPnmJn7XhHaHqP2O30Psjmmb zHgj3c5fqH2+55hrWvarrN0bnUJzK/7C9EQHsijYZos2eeU3I293otBh00OHHGh9p95b0zR57t1L KRGegHVvl7e+Zui7Olk9Utofe6Ttr2jhpgceP1Zfsj7/AD8vm9I8teVgArMOKKKFx0H+Svv4nOlh ARFDYPmubNPJIzmbkerNI444Y1jjXii7ADJNbicVWM2KqZOKrcVdirsVdirsVdirsVfNn5weeh5j 136lZSctI01mSFlO0svR5fcbUX2375qtTl4jQ5B73sTs/wADHxS+uX2Du/W9U/5xe/LloIJfO2ox UkuFa30dWG4jrxmm/wBkRwX25eOX6TF/EXV+0Wvs+DHpvL9A/S+g8znlnYq7FXYq7FXYq7FXYq7F Xzx+eP5dtpGoN5j02L/cZfP/AKZGo2huG7+ySHf2bbuM5ztPR8EuOP0nn5F9J9l+2fGh4GQ/vIDb zj+sfd8Ur/Kf8xBod2NH1OSmk3T/ALqVjtBK3c16I37Xh18cHZ2s8M8EvpP2NntL2J+Yj4uMfvY9 P5w/WOny7nuOoWVnqNjLZ3SCa1uE4yIehB8CPvBzoZwE4mJ3BfOMGeeGYnA1KJeG+b/y+1TQrlnt 1a705zWGcD4h/kuB3Ht1zm9T2Xkgbj6o/a+j9m+1GDMAMp8Of+x+fT4sUZXU8WBU+BFDmtlEg0Xp YZIzFxII8msDMmkTBp15MfhjKr/M3wj8cy8Ohy5OQ+ezqdZ25pcA9UwT3R3P499Mh0jyjI7K0i8i TsWG3+xXqc3el7LhDeXql9jxPaftTmz3HF+7h/sj8enw+b0LRfKkcCh514juv7bfM9h7ZtHlmRgI ihEAVV2CjYDFVpOKrGbFVMnFVuKuxV2KuxV2KuxV2KvJPzo/MlbG3k8s6TL/AKdOvHUZ0P8AdRsP 7oEftuPteA9ztharPXpD03YXZfGRmmPSPpHf5+4PP/yj/LW889+Z0syGj0i04y6rdLtxjrtGp/nk pRfpPbMTBi4z5PQdp68abHf8Z+kfjufbVnZ2tlaQ2dpEsFrbosUEKCioiDiqqPAAZtwKfO5SMiSd yVXCxdirsVdirsVdirsVdirsVQ+oafZ6jYz2N7Es9pcoY5om3DKwocjOAkKPItmHNLHMTgalHk+V vzN/Lu+8nauVHKbR7klrC7I7dfSkPT1FH3jfxA5fWaQ4Zf0TyfWexO2Ia3H3ZI/UP0jy+5kX5X/m oLMRaFr01LQUSyvnP914RyE/sfyt+z8umboNfw+ifLoXSe0Xs74l58A9X8Ue/wAx5946+/n2WRYp oyrgSRuNwdwRm9fPWO6h5I0S6JZY/SJ7DdfuqMBiDzZRnKJsGksH5eWiH4HWn0j9WAQA5BlPNOX1 En3lGWvk2whYMzbj+Vd/+CYtkmtN7extLUfuYwG/nO7fecVVGbFVhOKrGbFVMnFVuKuxV2KuxV2K uxV2KvNfzS/Ne38vxSaTo8iy6444ySD4ktgR1PYyeC9up8Di6jUcOw5u/wCyOxzmInk2x/7r9jxT yn5U17zn5ji0nTUM97dMZJ55CeEaVrJNK+9AK/Sdhuc18IGZoPX6nU49Pj4pbRH4oPtfyF5H0fyX 5dg0XTFqF/eXVywAeeZgOUj0+VAOwoM22PGICg+ea3WT1GQzl8PIMiyxxHYq7FXYq7FXYq7FXYq7 FXYq7FUBrmh6Xrmlz6ZqcAuLO4WjoeoPZlPVWXqCMhkxxnHhlycjS6rJgyDJjNSD5a/Mj8sdY8m3 pc8rrRpmpa34GwrWkctPsvT6D28BzWq0csR74976r2P23j1kf5uQc4/pHl9yM/L/APNm90L09N1b nd6QKLG/WWAf5NftJ/k9u3gb9Hrzj9Mt4/c4Hbfs3DU3kxenL9kv1Hz+fe9w07VdP1SzjvdPuEub WUVSWM1HyPcEdwd830JiQsGw+b6jT5MMzDIDGQVycm0rCcVU2bFVhOKrGbFVMnFVuKuxV2KuxV2K uxVbLLFDE8srrHFGCzyOQqqo3JJOwAxSASaHN41+Yv53IBLpXlWTkxqs+qjoPEQA9f8AX+7xzBza rpH5vVdmdg8p5v8AS/r/AFfN5p5N8leZPOuuLpukQtPO553V1IT6cSE/FLK5/wBs9qnMOGMzNB6L VavHp4cUth0Hf5B9kflv+WuheRNF+o6ePWvJqNf6i6gSTuOnjxRf2Vrt7mpza4sQgKDwGv7QnqZ8 Uth0Hcy7LXBdirsVdirsVdirsVdirsVdirsVdirsVUL+wstQs5bK+gS5tJ14TQSKGRlPYg5GURIU eTZiyyxyEompDqHz1+ZP5Cajphl1Pysj32nbtJp273EQ/wCK+8qj/gvn1zSars4x3huO59C7H9qY ZahqPTP+d/Cff3H7Pc8y0DzTr3lu9M+m3DQNWk1u28b07SRnb+I7ZhYc08ZuJej13Z2DVw4cgvuP Ue4/gPYfK350aBqapBq9NLvehdjW3Y+If9j5N95zdYO0IS2l6T9jwHaXsrnw+rF+8h/svl1+HyZ8 k0csayROJI3AZHUgqQehBGZ4NvLSiYmjsWicKFjNiqmTiq3FXYq7FXYq7FXYqwrzb+bXlLy9zh9f 9Iagu31S1Iah/wCLJPsp+J9soyaiMfMu20fY2fPvXDHvP6A8N85/mX5k81O0d1L9W06tUsICRHt0 Lnq5+e3gBmvy55T9z1+h7KxafcC5d5/Gyf8A5YfkZ5m86PHe3Ctpfl+oLX8q/HKvcW6GnL/XPwj3 6YcOnM9+Qau0e2Men9I9U+7u976y8o+TfL3lLSE0vQ7UW9uu8jn4pZX7vK/VmP4dBQZs4YxEUHh9 VqsmefFM2fxyTrJuO7FXYq7FXYq7FXYq7FXYq7FXYq7FXYq7FXYq7FWDee/ye8p+bfUuZIv0fqzA 01C2ABZvGVNlk/Bv8rMTPo4ZN+R73edme0Go0npB48f80/oPT7vJ8++cvyY87+WWeU2p1LTl3F7Z gyAL/wAWR/bT32p75qM2iyQ6WHvuz/aHTana+CfdL9B5H7/Ji+h+bvMWhPXS76S3StWhryiJ942q v00yvFmnD6S52s7N0+pH72Al59fnzZ/pH593aBU1jTUm/mntWKN/yLfkD/wQzYY+0j/EHltV7GRO +GdeUt/tH6mXaf8AnB5GvVHO8ezkP+67mNlP/BJzT/hsy4a3GetOg1HsxrcfKImP6J/XR+xP7XzP 5bu/95dVtJj4JPGT9IDVy8ZYHkQ6rJoNRD6scx/mlMY5I5F5RsHXpVSCPwyy3FMSOa5mVVLMQFAq SdgAMUAIC61/QrQE3WpWtuB19WaNP+JMMiZxHMt8NLll9MZH3Asf1L82vIFgDz1VLhx0S2V5q/Jl BT/hsqlqYDq52LsTVT/gr37ML1r/AJyItFDJoulPI37M14wQD/nnGWJ/4MZRLWjoHa4PZmX+Un8v 1n9TzjzH+ZfnLXw8d7ftFavWtpbfuYqHsQvxMP8AWJzFnnnLmXe6XsrBh3jHfvO5/Hub8m/lh528 3yD9C6a72taPfzfurZd6H942zU7hKn2wY8Mpcgz1XaOHB9ct+7q+i/y8/wCcbPK2gGK+8wMuuaql GETilnGw/ljO8nzfb/JGZ+LSxjudy8pru38uX04/RH7f2fD5vYVVUUKoCqooqjYADsMynQN4q7FX Yq7FXYq7FXYq7FXYq7FXYq7FXYq7FXYq7FXYq7FXYqxLzR+VPkTzKXk1HS40u363lt+4mr4lkoHP +uDmPk0uOfMO10fbeq0+0Jnh7juP2fB5Xr//ADizJ8T+X9bB/kt79CPvmiB/5N5hT7N/mn5vT6b2 zHLLj+MT+g/refax+Q/5oacWI0n67Ev+7bSWOWvySqyf8LmPLR5B0d3h9pdHk/j4T5gj9n2sS1Dy f5u08t9e0S/tgtamW2mQbd6laU265UcUhzBc2GvwT+mcT/nBJpo5Ym4So0b9eLAg/ccFNnGDyUvi ZgqgliaADcknCA1SkjrTyz5lvmC2Wk3t0x2Aht5ZCd6fsqe5ywQJ5BxMmqxx5yiPiGS6X+R/5qam V9Hy/PAjdXuyltQeJWZkb8Mujp5no67N2zpoc5g+7f7meeX/APnE3zDOVfXtYtrGM7mG1V7iT5Fm 9FVPy5ZfHRHqXVZ/aXGPoiT79v1vV/Kv/OP/AOWvl5km+oHVbtDUXGosJqH2iAWH5fBX3zJhpoR8 3R6ntvUZdr4R/R2+3m9GREjRY41CIgCoiigAGwAAzIdUTbeKHYq7FXYq7FXYq7FXYq7FXYq7FXYq 7FXYq7FXYq7FXYq7FXYq7FXYq7FXYq7FXYq7FXYq7FXYq7FXYq7FXYq7FXYq7FXYq7FXYq7FXYq7 FXYq7FXYq7FXYq7FXYq7FXYq7FXYq7FXYq7FXYq7FXYq7FXYq7FXYq7FXYq7FXYq7FXYq7FXYq7F XYq7FX//2Q==</image>
      </li>
     </Alt>
    </Thumbnails>
   </Description>
   <Description about="uuid:cc334bcf-f38c-47b9-b470-6dabc9899722">
    <DocumentID>uuid:8ee503fe-5a2f-428b-bd75-0aed6bb6841d</DocumentID>
   </Description>
   <Description about="uuid:cc334bcf-f38c-47b9-b470-6dabc9899722">
    <format>image/svg+xml</format>
   </Description>
   <Work>
    <format>image/svg+xml</format>
    <type resource="http://purl.org/dc/dcmitype/StillImage"/>
   </Work>
   <cc:Work>
    <dc:format>image/svg+xml</dc:format>
    <dc:type rdf:resource="http://purl.org/dc/dcmitype/StillImage"/>
    <cc:license rdf:resource="https://www.gnu.org/licenses/lgpl.html"/>
    <cc:attributionName rdf:resource="David Vignoni"/>
    <cc:attributionURL rdf:resource="https://commons.wikimedia.org/wiki/File:Acroread.svg"/>
    <dc:title/>
   </cc:Work>
  </rdf:RDF>
 </metadata>
<defs>
<linearGradient id="a" gradientUnits="userSpaceOnUse" x1="27.57" x2="90.99" y1="34.45" y2="97.87">
<stop offset="0" stop-color="#f30"/>
<stop offset=".2269" stop-color="#f62a00"/>
<stop offset=".5975" stop-color="#df1100"/>
<stop offset=".8146" stop-color="#cf0000"/>
<stop offset="1" stop-color="#900"/>
</linearGradient>
<linearGradient id="b" gradientUnits="userSpaceOnUse" x1="27.57" x2="90.99" y1="34.45" y2="97.87">
<stop offset="0" stop-color="#fff"/>
<stop offset=".2269" stop-color="#f6f6f6"/>
<stop offset=".5975" stop-color="#ddd"/>
<stop offset=".8146" stop-color="#ccc"/>
</linearGradient>
<radialGradient id="c" cx="84.23" cy="60.84" gradientUnits="userSpaceOnUse" r="29.13">
<stop offset="0" stop-color="#900"/>
<stop offset="1" stop-color="#f8310e"/>
</radialGradient>
<linearGradient id="d" gradientUnits="userSpaceOnUse">
<stop offset="0" stop-color="#fff"/>
<stop offset="1" stop-color="#f8310e"/>
</linearGradient>
<linearGradient id="e" x1="42.26" x2="44.6" xlink:href="#d" y1="82.44" y2="88.68"/>
<linearGradient id="f" x1="110.3" x2="109.1" xlink:href="#d" y1="70.83" y2="75.52"/>
<linearGradient id="g" gradientTransform="matrix(.9835 .1809 -.1809 .9835 194.7 132)" gradientUnits="userSpaceOnUse" x1="-96.66" x2="-96.66" y1="-19.64" y2="-36.27">
<stop offset="0" stop-color="#cf0000"/>
<stop offset="1" stop-color="#f8310e"/>
</linearGradient>
<linearGradient id="h" x1="76.57" x2="76.98" xlink:href="#d" y1="73.98" y2="76.82"/>
<linearGradient id="i" x1="80.88" x2="80.88" xlink:href="#d" y1="5.28" y2="11.88"/>
</defs>
<path d="M0 0H128V128H0Z" fill="none"/>
<path d="m7.76 67.3c0 29.04 23.63 52.67 52.67 52.67 29.04 0 52.67-23.63 52.67-52.67 0-29.04-23.63-52.67-52.67-52.67-29.04 0-52.67 23.63-52.67 52.67z" fill="url(#a)"/>
<circle cx="60.42" cy="67.3" fill="url(#b)" r="48.67"/>
<path d="m87.23 11.54c-11.01 6.68 16.39 88.65 29.75 71.36 15.02-19.46-103 5.88-80.46 16.39 26.37 12.31 71.24-100.2 50.72-87.75z" fill="none"/>
<path d="m83.78 9.09c-11.01 6.69 16.4 88.66 29.75 71.36 15.02-19.46-103 5.88-80.46 16.39 26.37 12.31 71.24-100.2 50.71-87.75z" fill="none"/>
<path d="m103.3 73.03c-1.11-1.92-2.1-3.9-3.03-5.75-3.42-6.82-6.1-14.01-8.39-21.28-1.03-3.28-1.98-6.61-2.79-9.97.33-.93.66-1.85.97-2.78.83-2.42 1.72-5 2.49-7.65-1.75-1.35-3.58-2.59-5.49-3.72-.08.39-.16.78-.25 1.17-.04-.46-.08-.92-.11-1.37-2.23-1.29-4.57-2.42-6.99-3.38-.67 6.32 1.39 14.07 2.67 19.18-3.86 10.76-8.86 21.2-14.5 31.06-2.02 3.52-4.28 7.49-6.85 11.35-8.94 2.23-17.97 5.02-25.85 9.55-2.62 1.51-5.77 3.74-6.24 6.95-.45 3.11 3.9 4.88 6.2 5.41 10.25 2.41 19.58-6.8 25.6-13.8 1.29-1.5 2.53-3.06 3.75-4.64 2.56-.57 5.09-1.1 7.56-1.63 8.42-1.8 17.36-3.61 26.19-4.03.34.51.67 1.02 1.02 1.52 2.42 3.46 5.5 7.22 9.92 7.93h0c .69-1.69 1.3-3.43 1.81-5.2-.35-.22-.68-.48-.97-.7-1.3-.99-2.45-2.19-3.5-3.48.33.02.67.04 1 .07 1.15.1 2.97.31 4.32.8.37-1.69.66-3.41.87-5.16-2.67-.42-5.39-.47-6.91-.48-.83 0-1.66 0-2.49.02zm-58.94 23.44c-2.75 1.33-6.24 1.47-8.53-.86-.44-.44-.28-.8-.09-1.09.46-.67 1.84-1.57 3.12-2.3 5.58-3.22 11.96-5.39 18.44-7.1-3.71 4.76-7.97 8.95-12.94 11.36zm23.94-18.29c6.63-9.61 12.09-20.29 16.57-31.13 2.61 9.1 6.05 18.24 10.75 26.41-9.21.83-18.42 2.69-27.32 4.72z" opacity=".2"/>
<path d="m104.8 71.99c-.83 0-1.66 0-2.49.02-1.11-1.92-2.1-3.9-3.03-5.75-3.42-6.82-6.1-14.01-8.39-21.28-1.03-3.28-1.98-6.61-2.79-9.97.33-.93.66-1.85.97-2.78.8-2.35 1.68-4.86 2.43-7.44-1.76-1.29-3.6-2.47-5.51-3.53-.05.26-.11.52-.17.78-.03-.31-.05-.61-.08-.92-2.26-1.24-4.62-2.33-7.07-3.23-.49 6.21 1.48 13.63 2.72 18.58-3.86 10.76-8.86 21.2-14.51 31.06-2.02 3.52-4.28 7.49-6.84 11.35-8.94 2.23-17.97 5.02-25.85 9.55-2.62 1.51-5.77 3.74-6.24 6.95-.45 3.11 3.9 4.88 6.2 5.41 10.25 2.41 19.58-6.8 25.6-13.8 1.29-1.5 2.53-3.06 3.75-4.64 2.56-.57 5.09-1.1 7.56-1.63 8.42-1.8 17.36-3.6 26.19-4.03.34.51.67 1.02 1.02 1.52 2.42 3.46 5.5 7.22 9.92 7.93.47.08.93.1 1.4.09.6-1.56 1.13-3.16 1.59-4.79-.78-.14-1.54-.74-2.14-1.2-1.3-.99-2.45-2.18-3.5-3.48.33.02.67.04 1 .07 1.53.13 4.23.46 5.44 1.38.38-1.81.68-3.66.87-5.53-3-.61-6.3-.67-8.04-.69zm-61.44 23.46c-2.75 1.33-6.24 1.47-8.53-.86-.44-.44-.28-.8-.09-1.09.46-.67 1.84-1.57 3.12-2.3 5.58-3.22 11.96-5.39 18.44-7.1-3.71 4.76-7.97 8.95-12.94 11.36zm23.94-18.29c6.63-9.61 12.09-20.29 16.57-31.13 2.61 9.1 6.05 18.24 10.75 26.41-9.21.83-18.42 2.69-27.32 4.72z" opacity=".2"/>
<path d="m82.15 7.59c-8.26 5.59-3.27 21.73-1.45 29.31 3.32 13.85 8.29 28.52 16.52 40.29 2.42 3.46 5.5 7.22 9.92 7.93 4.29.69 8.53-2.39 10.37-6.08 3.86-7.72-9.52-8.05-13.76-8.08-12.6-.08-25.41 2.42-37.64 5.2-11.14 2.54-22.98 5.49-32.97 11.24-2.62 1.51-5.77 3.74-6.24 6.95-.45 3.11 3.9 4.88 6.2 5.41 10.25 2.41 19.58-6.8 25.6-13.8 13.33-15.52 22.75-35.53 29.31-54.77 2.15-6.3 4.81-13.74 4.23-20.52-.5-5.88-5.96-5.52-10.1-3.1-4.01 2.35.22 4.77 3.27 2.99.74-.43-.63-.34-.3 0 .41.41.57 2.17.57 3.14.03 4.62-1.37 9.29-2.68 13.67-4.07 13.61-10.13 26.81-17.18 39.11-5.57 9.72-12.97 22.81-23.52 27.93-2.75 1.33-6.24 1.47-8.53-.86-.44-.44-.28-.8-.09-1.09.46-.67 1.84-1.57 3.12-2.3 9.86-5.68 22.22-8.12 33.21-10.47 11.4-2.44 23.75-4.89 35.46-3.91 1.99.17 6 .68 6.07 2.4.03.66-.6 1.83-1.24 2.31-.61.45.58.04-.14-.08-.79-.12-1.58-.75-2.19-1.22-4.47-3.4-7.29-9.1-9.75-13.99-3.42-6.82-6.1-14.01-8.39-21.28-2.19-6.95-3.99-14.08-4.89-21.31-.34-2.75-.51-5.54-.31-8.32.07-.9.2-1.79.46-2.66.16-.56.94-1.49.33-1.08 3.83-2.59-.29-5-3.27-2.99l0 0z" fill="url(#c)"/>
<path d="m32.95 94.38c-.66-.67-.65-1.36-.59-1.72l.36-.84c.31-.46 1.01-1.23 3.51-2.66 4.93-2.84 10.86-5.12 18.67-7.19l3.06-.81c.92-.69 1.63-1.53 1.86-2.48l-.13.19-.44.11c-7.52 1.87-17.23 4.64-25.54 9.42-2.18 1.26-5.14 3.24-5.64 5.94l-.03.17c-.19 1.33 1.14 2.44 2.73 3.2 1.46-.73 2.96-1.29 4.38-1.84-.82-.36-1.58-.85-2.22-1.51z" fill="url(#e)"/>
<path d="m116.7 75.31c-.71-1.16-3.35-3.12-12.96-3.18l-1.27.05-.78.03c.13.83.37 1.59.7 2.28l2.6.12s.58.03.58.03c4.72.39 7.05 1.54 7.14 3.51l-.04.57c-.13.7-.54 1.5-1.05 2.11.85.24 1.72.46 2.59.66.94-.89 1.72-1.91 2.24-2.96.67-1.34.75-2.39.24-3.21z" fill="url(#f)"/>
<path d="m111.6 80.83c-.19.24-.4.45-.61.61l-.6.46s-.27-.17-.54-.34c-1-.19-1.88-.86-2.52-1.35-1.3-.99-2.46-2.15-3.74-3.72l-1.11-1.36c-1.48.42-2.97.87-4.44 1.24l.11.16c2.45 3.5 5.25 6.82 9.15 7.45 2.56.41 5.05-.76 6.9-2.49-.87-.2-1.74-.41-2.59-.66z" fill="url(#g)"/>
<path d="m66.44 77.29l-2.92.66.3-.44c-1.52.78-3.1 1.52-4.58 2.36-.34.47-.77.91-1.28 1.3l.1-.03c1.52-.57 3.12-1.26 4.88-1.1l5.71-1.24 1.12-.24c8.5-1.82 17.55-3.63 26.41-4.05l.11-.01c-.78-1.03-2.32-1.24-3.4-1.83-9.39.91-18.62 2.83-26.44 4.61z" fill="url(#h)"/>
<path d="m102 74.48l.41.02c-.33-.69-.56-1.45-.7-2.28l-1.06.05-.3-.61-3.16-5.9c-3.06-6.1-5.83-13.11-8.46-21.45-1.09-3.44-2.03-6.84-2.81-10.09l-.08-.34.52-1.43.57-1.61.25-.73c1.27-3.7 2.7-7.89 3.46-11.98.5-2.74.65-5.13.46-7.33-.14-1.66-.73-2.77-1.75-3.29-1.52-.79-4.11-.36-6.6 1.1l-.03.02c-.4.24-.68.48-.88.75l-.05.07-.07.06c-1.35 1.35-2.26 3.2-2.68 5.51-1.11 6.02.92 14.07 2.26 19.4l.26 1.02-.12.33c-3.74 10.42-8.64 20.95-14.57 31.31l-.07.12c-2 3.49-4.27 7.45-6.83 11.3l-.12.18c-.11.42-.31.81-.58 1.18 1.49-.84 3.06-1.58 4.58-2.36l1.4-2.03c6.17-8.93 11.73-19.35 16.53-30.97l1.27-3.09.92 3.21c2.94 10.28 6.43 18.85 10.66 26.2l.91 1.58-1.81.16c-.28.02-.55.06-.82.08 1.08.6 2.62.81 3.4 1.83l.57-.03.77 1.21.44.67c1.47-.36 2.96-.82 4.44-1.24l-.53-.65m-15.92-54.04l-.15.61-2.3-.15c-.24-2.65-.29-4.7-.15-6.65v0l .21-1.66.3-1.25c0 0 1.64-3.54 1.64-3.54l.87 2.93c.27.86.38 2.15.38 2.99.01 1.72-.16 3.54-.54 5.56l-.26 1.15z" fill="url(#i)"/>
</svg>
